<?xml version="1.0" encoding="utf-8"?>
<!-- Generator: Adobe Illustrator 23.0.4, SVG Export Plug-In . SVG Version: 6.00 Build 0)  -->
<svg version="1.1" id="Logo" xmlns="http://www.w3.org/2000/svg" xmlns:xlink="http://www.w3.org/1999/xlink" x="0px" y="0px"
	 viewBox="0 0 200 99.425" enable-background="new 0 0 200 99.425" xml:space="preserve">
<g id="Logo_1_">
	<path id="Interactive_Experience_Designer" fill="#731D2C" d="M6.453,86.888v9.047H4.385v-9.047H6.453z M14.144,91.967v3.968
		h-1.939v-3.684c0-0.801-0.504-1.176-1.124-1.176c-0.711,0-1.202,0.413-1.202,1.331v3.528H7.94v-6.462h1.938v0.607
		c0.349-0.479,0.995-0.788,1.848-0.788C13.032,89.293,14.144,90.222,14.144,91.967z M17.933,91.335v2.287
		c0,0.556,0.478,0.607,1.331,0.556v1.758c-2.533,0.259-3.27-0.504-3.27-2.313v-2.287H14.96v-1.861h1.034v-1.228l1.938-0.582v1.81
		h1.331v1.861H17.933z M23.775,94.384c0.53,0,0.982-0.207,1.241-0.491l1.551,0.892c-0.633,0.879-1.59,1.331-2.817,1.331
		c-2.21,0-3.58-1.486-3.58-3.412s1.396-3.411,3.438-3.411c1.887,0,3.283,1.46,3.283,3.411c0,0.271-0.026,0.53-0.078,0.775h-4.588
		C22.47,94.152,23.064,94.384,23.775,94.384z M24.964,92.032c-0.207-0.749-0.789-1.021-1.37-1.021c-0.736,0-1.228,0.361-1.409,1.021
		H24.964z M31.867,89.343v2.197c-0.801-0.129-1.938,0.194-1.938,1.474v2.921H27.99v-6.462h1.938v1.15
		C30.187,89.757,31.053,89.343,31.867,89.343z M39.403,89.473v6.462h-1.938v-0.607c-0.427,0.491-1.06,0.788-1.926,0.788
		c-1.693,0-3.089-1.486-3.089-3.412s1.396-3.411,3.089-3.411c0.866,0,1.499,0.297,1.926,0.788v-0.607H39.403z M37.465,92.704
		c0-0.969-0.646-1.576-1.538-1.576c-0.892,0-1.538,0.607-1.538,1.576c0,0.97,0.646,1.577,1.538,1.577
		C36.819,94.281,37.465,93.674,37.465,92.704z M40.504,92.704c0-1.926,1.46-3.411,3.425-3.411c1.253,0,2.366,0.658,2.921,1.654
		l-1.693,0.981c-0.22-0.452-0.685-0.724-1.254-0.724c-0.84,0-1.46,0.607-1.46,1.499c0,0.893,0.621,1.5,1.46,1.5
		c0.569,0,1.047-0.271,1.254-0.725l1.693,0.97c-0.556,1.008-1.654,1.667-2.921,1.667C41.964,96.116,40.504,94.63,40.504,92.704z
		 M50.147,91.335v2.287c0,0.556,0.479,0.607,1.332,0.556v1.758c-2.533,0.259-3.271-0.504-3.271-2.313v-2.287h-1.033v-1.861h1.033
		v-1.228l1.938-0.582v1.81h1.332v1.861H50.147z M52.513,87.741c0-0.633,0.53-1.163,1.163-1.163c0.634,0,1.164,0.53,1.164,1.163
		c0,0.634-0.53,1.163-1.164,1.163C53.043,88.904,52.513,88.375,52.513,87.741z M52.708,89.473h1.938v6.462h-1.938V89.473z
		 M62.336,89.473l-2.392,6.462h-2.197l-2.391-6.462h2.146l1.344,4.097l1.345-4.097H62.336z M66.332,94.384
		c0.53,0,0.982-0.207,1.241-0.491l1.551,0.892c-0.633,0.879-1.59,1.331-2.817,1.331c-2.21,0-3.58-1.486-3.58-3.412
		s1.396-3.411,3.438-3.411c1.888,0,3.283,1.46,3.283,3.411c0,0.271-0.026,0.53-0.077,0.775h-4.589
		C65.027,94.152,65.622,94.384,66.332,94.384z M67.521,92.032c-0.207-0.749-0.788-1.021-1.37-1.021
		c-0.736,0-1.228,0.361-1.408,1.021H67.521z M79.53,93.945v1.99h-5.687v-9.047h5.622v1.99h-3.554v1.499h3.23v1.965h-3.23v1.603
		H79.53z M84.546,95.935l-1.202-1.706l-1.202,1.706h-2.223l2.313-3.283l-2.236-3.179h2.224l1.124,1.603l1.125-1.603h2.223
		l-2.236,3.179l2.313,3.283H84.546z M94.435,92.704c0,1.926-1.396,3.412-3.089,3.412c-0.866,0-1.499-0.297-1.926-0.788v3.192h-1.938
		v-9.047h1.938v0.607c0.427-0.491,1.06-0.788,1.926-0.788C93.04,89.293,94.435,90.778,94.435,92.704z M92.497,92.704
		c0-0.969-0.646-1.576-1.538-1.576s-1.538,0.607-1.538,1.576c0,0.97,0.646,1.577,1.538,1.577S92.497,93.674,92.497,92.704z
		 M98.818,94.384c0.53,0,0.982-0.207,1.241-0.491l1.55,0.892c-0.632,0.879-1.589,1.331-2.817,1.331c-2.21,0-3.58-1.486-3.58-3.412
		s1.396-3.411,3.438-3.411c1.888,0,3.283,1.46,3.283,3.411c0,0.271-0.026,0.53-0.077,0.775h-4.588
		C97.513,94.152,98.108,94.384,98.818,94.384z M100.007,92.032c-0.207-0.749-0.788-1.021-1.37-1.021
		c-0.736,0-1.228,0.361-1.408,1.021H100.007z M106.909,89.343v2.197c-0.801-0.129-1.938,0.194-1.938,1.474v2.921h-1.938v-6.462
		h1.938v1.15C105.229,89.757,106.095,89.343,106.909,89.343z M107.621,87.741c0-0.633,0.53-1.163,1.163-1.163
		c0.634,0,1.164,0.53,1.164,1.163c0,0.634-0.53,1.163-1.164,1.163C108.151,88.904,107.621,88.375,107.621,87.741z M107.815,89.473
		h1.938v6.462h-1.938V89.473z M114.459,94.384c0.53,0,0.982-0.207,1.241-0.491l1.551,0.892c-0.633,0.879-1.59,1.331-2.817,1.331
		c-2.21,0-3.58-1.486-3.58-3.412s1.396-3.411,3.438-3.411c1.888,0,3.283,1.46,3.283,3.411c0,0.271-0.026,0.53-0.078,0.775h-4.588
		C113.154,94.152,113.749,94.384,114.459,94.384z M115.648,92.032c-0.207-0.749-0.788-1.021-1.37-1.021
		c-0.736,0-1.228,0.361-1.408,1.021H115.648z M124.877,91.967v3.968h-1.938v-3.684c0-0.801-0.504-1.176-1.124-1.176
		c-0.711,0-1.202,0.413-1.202,1.331v3.528h-1.938v-6.462h1.938v0.607c0.349-0.479,0.995-0.788,1.849-0.788
		C123.766,89.293,124.877,90.222,124.877,91.967z M125.888,92.704c0-1.926,1.461-3.411,3.425-3.411c1.254,0,2.365,0.658,2.921,1.654
		l-1.693,0.981c-0.22-0.452-0.685-0.724-1.253-0.724c-0.841,0-1.461,0.607-1.461,1.499c0,0.893,0.62,1.5,1.461,1.5
		c0.568,0,1.047-0.271,1.253-0.725l1.693,0.97c-0.556,1.008-1.654,1.667-2.921,1.667C127.349,96.116,125.888,94.63,125.888,92.704z
		 M136.357,94.384c0.53,0,0.982-0.207,1.241-0.491l1.551,0.892c-0.633,0.879-1.59,1.331-2.817,1.331c-2.21,0-3.58-1.486-3.58-3.412
		s1.396-3.411,3.438-3.411c1.888,0,3.283,1.46,3.283,3.411c0,0.271-0.026,0.53-0.078,0.775h-4.588
		C135.053,94.152,135.647,94.384,136.357,94.384z M137.547,92.032c-0.207-0.749-0.788-1.021-1.37-1.021
		c-0.736,0-1.228,0.361-1.408,1.021H137.547z M151.882,91.412c0,2.559-1.899,4.523-4.394,4.523h-3.619v-9.047h3.619
		C149.982,86.888,151.882,88.853,151.882,91.412z M149.892,91.412c0-1.551-0.982-2.533-2.403-2.533h-1.551v5.066h1.551
		C148.909,93.945,149.892,92.963,149.892,91.412z M156.266,94.384c0.53,0,0.982-0.207,1.241-0.491l1.551,0.892
		c-0.633,0.879-1.59,1.331-2.817,1.331c-2.21,0-3.58-1.486-3.58-3.412s1.396-3.411,3.438-3.411c1.888,0,3.283,1.46,3.283,3.411
		c0,0.271-0.026,0.53-0.078,0.775h-4.588C154.961,94.152,155.556,94.384,156.266,94.384z M157.455,92.032
		c-0.207-0.749-0.788-1.021-1.37-1.021c-0.736,0-1.228,0.361-1.408,1.021H157.455z M165.495,93.997c0,1.486-1.293,2.119-2.688,2.119
		c-1.292,0-2.274-0.491-2.778-1.538l1.68-0.956c0.168,0.491,0.53,0.763,1.099,0.763c0.466,0,0.698-0.143,0.698-0.4
		c0-0.711-3.18-0.336-3.18-2.572c0-1.409,1.189-2.119,2.533-2.119c1.047,0,1.978,0.465,2.521,1.383l-1.654,0.892
		c-0.182-0.336-0.439-0.569-0.866-0.569c-0.336,0-0.543,0.13-0.543,0.362C162.315,92.096,165.495,91.605,165.495,93.997z
		 M166.337,87.741c0-0.633,0.53-1.163,1.163-1.163c0.634,0,1.164,0.53,1.164,1.163c0,0.634-0.53,1.163-1.164,1.163
		C166.867,88.904,166.337,88.375,166.337,87.741z M166.531,89.473h1.938v6.462h-1.938V89.473z M176.521,89.473v6.139
		c0,2.172-1.693,3.089-3.412,3.089c-1.344,0-2.469-0.504-3.062-1.563l1.654-0.957c0.245,0.453,0.62,0.814,1.473,0.814
		c0.905,0,1.461-0.465,1.461-1.383v-0.595c-0.427,0.53-1.047,0.841-1.887,0.841c-1.836,0-3.18-1.5-3.18-3.283
		s1.344-3.282,3.18-3.282c0.84,0,1.46,0.31,1.887,0.84v-0.659H176.521z M174.635,92.575c0-0.892-0.646-1.499-1.563-1.499
		c-0.918,0-1.564,0.607-1.564,1.499s0.646,1.499,1.564,1.499C173.988,94.074,174.635,93.466,174.635,92.575z M184.148,91.967v3.968
		h-1.938v-3.684c0-0.801-0.504-1.176-1.124-1.176c-0.711,0-1.202,0.413-1.202,1.331v3.528h-1.938v-6.462h1.938v0.607
		c0.349-0.479,0.995-0.788,1.849-0.788C183.037,89.293,184.148,90.222,184.148,91.967z M188.765,94.384
		c0.53,0,0.982-0.207,1.241-0.491l1.551,0.892c-0.633,0.879-1.59,1.331-2.817,1.331c-2.21,0-3.58-1.486-3.58-3.412
		s1.396-3.411,3.438-3.411c1.888,0,3.283,1.46,3.283,3.411c0,0.271-0.026,0.53-0.077,0.775h-4.589
		C187.46,94.152,188.055,94.384,188.765,94.384z M189.954,92.032c-0.207-0.749-0.788-1.021-1.37-1.021
		c-0.736,0-1.228,0.361-1.408,1.021H189.954z M196.856,89.343v2.197c-0.801-0.129-1.938,0.194-1.938,1.474v2.921h-1.938v-6.462
		h1.938v1.15C195.177,89.757,196.042,89.343,196.856,89.343z"/>
	<path id="Nathan_Albrecht" fill="#731D2C" d="M80.224,4.212c0,0.441-0.11,0.441-0.11,0.882s0.072,0.441,0.072,0.882
		c0,0.442-0.057,0.442-0.057,0.883c0,0.442,0.092,0.442,0.092,0.883c0,0.441,0.023,0.441,0.023,0.882
		c0,0.441,0.004,0.441,0.004,0.882c0,0.442-0.067,0.442-0.067,0.883c0,0.442,0.046,0.442,0.046,0.884
		c0,0.441-0.025,0.441-0.025,0.882c0,0.44-0.069,0.44-0.069,0.881c0,0.44,0.012,0.44,0.012,0.881c0,0.44-0.024,0.44-0.024,0.881
		c0,0.441,0.116,0.441,0.116,0.881c0,0.441-0.091,0.441-0.091,0.883c0,0.442-0.01,0.442-0.01,0.884c0,0.441,0.115,0.441,0.115,0.882
		c0,0.441-0.114,0.441-0.114,0.882c0,0.441-0.001,0.441-0.001,0.882c0,0.442,0.027,0.442,0.027,0.884
		c0,0.442,0.021,0.442,0.021,0.884c0,0.441,0.008,0.441,0.008,0.883c0,0.442-0.065,0.442-0.065,0.883
		c0,0.442,0.109,0.442,0.109,0.884c0,0.442-0.092,0.442-0.092,0.883c0,0.442,0.008,0.442,0.008,0.884s-0.004,0.442-0.004,0.884
		c0,0.442-0.007,0.442-0.007,0.885c0,0.442,0.072,0.442,0.072,0.884c0,0.441-0.025,0.441-0.025,0.882
		c0,0.443,0.015,0.443,0.015,0.885c0,0.442-0.031,0.442-0.031,0.884c0,0.442,0.019,0.442,0.019,0.885
		c0,0.443-0.065,0.443-0.065,0.886c0,0.442-0.004,0.442-0.004,0.884c0,0.443,0.006,0.443,0.006,0.887
		c0,0.444,0.027,0.444,0.027,0.888c0,0.444,0.067,0.444,0.067,0.888c0,0.336,0.23,0.576,0.567,0.576
		c0.425,0,0.425,0.027,0.851,0.027c0.425,0,0.425-0.025,0.85-0.025c0.425,0,0.425,0.045,0.851,0.045
		c0.426,0,0.426,0.049,0.852,0.049c0.425,0,0.425-0.11,0.85-0.11c0.426,0,0.426-0.009,0.853-0.009c0.427,0,0.427,0.042,0.854,0.042
		s0.427,0.031,0.854,0.031c0.336,0,0.58-0.291,0.58-0.627c0-0.436,0.078-0.436,0.078-0.873c0-0.437,0.022-0.437,0.022-0.874
		c0-0.436-0.016-0.436-0.016-0.873c0-0.437-0.087-0.437-0.087-0.874c0-0.437-0.012-0.437-0.012-0.873
		c0-0.437-0.022-0.437-0.022-0.874c0-0.437,0.112-0.437,0.112-0.873c0-0.436,0.024-0.436,0.024-0.872
		c0-0.437-0.034-0.437-0.034-0.874c0-0.436-0.005-0.436-0.005-0.873c0-0.437-0.072-0.437-0.072-0.874
		c0-0.438,0.099-0.438,0.099-0.875c0-0.437-0.063-0.437-0.063-0.874c0-0.438-0.015-0.438-0.015-0.876
		c0-0.439-0.019-0.439-0.019-0.878c0-0.439,0.04-0.439,0.04-0.877c0-0.294,0.042-0.573,0.066-0.843
		c0.026-0.294-0.004-0.583,0.049-0.847c0.058-0.289,0.217-0.537,0.305-0.792c0.096-0.278,0.145-0.561,0.275-0.799
		c0.14-0.255,0.282-0.506,0.459-0.716c0.184-0.219,0.389-0.425,0.609-0.597c0.222-0.172,0.491-0.281,0.747-0.406
		c0.248-0.121,0.492-0.288,0.77-0.365c0.264-0.074,0.552-0.12,0.839-0.155c0.271-0.033,0.56-0.036,0.85-0.036
		c0.288,0,0.564,0.104,0.837,0.143c0.284,0.041,0.574,0.037,0.838,0.121c0.272,0.087,0.555,0.167,0.8,0.3
		c0.248,0.135,0.45,0.351,0.665,0.535c0.211,0.181,0.378,0.406,0.55,0.635c0.165,0.218,0.376,0.42,0.501,0.682
		c0.117,0.245,0.179,0.526,0.257,0.809c0.071,0.26,0.138,0.535,0.174,0.828c0.032,0.268-0.011,0.551-0.011,0.847
		c0,0.43,0.006,0.43,0.006,0.859c0,0.43,0.037,0.43,0.037,0.86c0,0.43-0.042,0.43-0.042,0.861c0,0.43,0.021,0.43,0.021,0.86
		c0,0.43,0.073,0.43,0.073,0.861c0,0.43-0.002,0.43-0.002,0.861s0.02,0.43,0.02,0.861c0,0.43-0.009,0.43-0.009,0.861
		c0,0.429-0.082,0.429-0.082,0.859c0,0.431,0.057,0.431,0.057,0.862c0,0.43,0.005,0.43,0.005,0.86c0,0.431-0.036,0.431-0.036,0.861
		c0,0.431,0.011,0.431,0.011,0.862c0,0.43,0.003,0.43,0.003,0.861c0,0.431,0.012,0.431,0.012,0.863c0,0.432-0.028,0.432-0.028,0.864
		c0,0.432-0.024,0.432-0.024,0.864c0,0.336,0.297,0.61,0.634,0.61c0.425,0,0.425,0.018,0.849,0.018c0.424,0,0.424,0.033,0.848,0.033
		c0.425,0,0.425-0.034,0.849-0.034c0.425,0,0.425-0.005,0.85-0.005c0.425,0,0.425-0.014,0.849-0.014
		c0.425,0,0.425,0.058,0.851,0.058c0.426,0,0.426-0.068,0.852-0.068c0.426,0,0.426,0.078,0.852,0.078c0.336,0,0.62-0.34,0.62-0.676
		c0-0.4-0.013-0.4-0.013-0.801c0-0.401-0.012-0.401-0.012-0.803c0-0.402-0.001-0.402-0.001-0.804c0-0.402-0.023-0.402-0.023-0.804
		c0-0.112-0.02-0.205-0.081-0.299c-0.158-0.248-0.327-0.494-0.472-0.751c-0.145-0.256-0.18-0.571-0.311-0.836
		c-0.131-0.263-0.374-0.476-0.491-0.748c-0.117-0.27-0.134-0.582-0.237-0.86c-0.103-0.275-0.215-0.547-0.304-0.83
		c-0.088-0.28-0.174-0.562-0.248-0.848c-0.074-0.285-0.166-0.566-0.226-0.856c-0.059-0.288-0.042-0.589-0.087-0.883
		c-0.044-0.29-0.115-0.576-0.145-0.872c-0.029-0.292-0.103-0.583-0.118-0.88c-0.015-0.293-0.032-0.59-0.032-0.887
		c0-0.297,0.091-0.589,0.106-0.882c0.015-0.296-0.08-0.599-0.051-0.891c0.03-0.295,0.182-0.574,0.226-0.864
		c0.044-0.293-0.021-0.605,0.038-0.892c0.059-0.29,0.199-0.562,0.272-0.847c0.074-0.287,0.11-0.584,0.198-0.864
		c0.089-0.283,0.221-0.55,0.323-0.826c0.103-0.277,0.167-0.571,0.283-0.84c0.117-0.271,0.326-0.506,0.456-0.769
		c0.007-0.173-0.057-0.326-0.05-0.499c-0.115-0.277-0.14-0.586-0.274-0.844c-0.138-0.266-0.391-0.462-0.547-0.708
		c-0.16-0.252-0.292-0.517-0.47-0.748c-0.182-0.236-0.392-0.443-0.592-0.656c-0.203-0.217-0.41-0.424-0.63-0.617
		c-0.223-0.196-0.47-0.352-0.708-0.524c-0.24-0.173-0.449-0.388-0.703-0.537c-0.255-0.149-0.536-0.245-0.804-0.369
		c-0.267-0.123-0.517-0.292-0.795-0.391c-0.277-0.098-0.565-0.171-0.852-0.244c-0.285-0.072-0.575-0.128-0.868-0.176
		c-0.289-0.048-0.584-0.069-0.88-0.093c-0.292-0.023-0.586-0.098-0.884-0.098c-0.304,0-0.606,0.007-0.897,0.025
		c-0.303,0.019-0.601,0.071-0.89,0.11c-0.302,0.041-0.588,0.141-0.873,0.202c-0.298,0.064-0.582,0.149-0.862,0.234
		c-0.291,0.088-0.602,0.107-0.872,0.217c-0.281,0.114-0.563,0.23-0.821,0.366c-0.268,0.142-0.467,0.391-0.709,0.555
		c-0.25,0.171-0.516,0.311-0.735,0.504c-0.195,0.171-0.416,0.151-0.617,0.056c-0.2-0.095-0.405-0.253-0.405-0.511
		c0-0.424-0.037-0.424-0.037-0.848c0-0.424,0.099-0.424,0.099-0.848c0-0.424,0.034-0.424,0.034-0.849
		c0-0.424-0.008-0.424-0.008-0.848c0-0.423-0.014-0.423-0.014-0.846c0-0.425-0.084-0.425-0.084-0.849
		c0-0.424,0.092-0.424,0.092-0.848c0-0.424-0.017-0.424-0.017-0.849c0-0.425-0.091-0.425-0.091-0.85
		c0-0.424,0.119-0.424,0.119-0.848c0-0.425-0.02-0.425-0.02-0.85c0-0.426-0.047-0.426-0.047-0.852c0-0.426,0.058-0.426,0.058-0.852
		c0-0.336-0.323-0.573-0.659-0.573c-0.425,0-0.425-0.031-0.851-0.031c-0.425,0-0.425-0.051-0.85-0.051
		c-0.425,0-0.425-0.001-0.851-0.001c-0.426,0-0.426,0.03-0.852,0.03c-0.425,0-0.425-0.019-0.851-0.019
		C82.921,0.037,82.921,0,82.495,0c-0.427,0-0.427,0-0.854,0s-0.427,0.112-0.854,0.112c-0.336,0-0.654,0.233-0.654,0.57
		c0,0.442,0.05,0.442,0.05,0.883c0,0.442,0.048,0.442,0.048,0.883c0,0.441-0.087,0.441-0.087,0.882
		C80.145,3.771,80.224,3.771,80.224,4.212z M8.582,36.901c0-0.43,0.01-0.43,0.01-0.861c0-0.43,0.091-0.43,0.091-0.861
		c0-0.43-0.116-0.43-0.116-0.859c0-0.429,0.025-0.429,0.025-0.857c0-0.429-0.012-0.429-0.012-0.859c0-0.429,0.069-0.429,0.069-0.858
		c0-0.428,0.025-0.428,0.025-0.856c0-0.429-0.046-0.429-0.046-0.858c0-0.428,0.067-0.428,0.067-0.855
		c0-0.429-0.004-0.429-0.004-0.857c0-0.429-0.023-0.429-0.023-0.858c0-0.429-0.092-0.429-0.092-0.857
		c0-0.429,0.058-0.429,0.058-0.857c0-0.428-0.072-0.428-0.072-0.856c0-0.429,0.11-0.429,0.11-0.857c0-0.428-0.079-0.428-0.079-0.856
		c0-0.428,0.087-0.428,0.087-0.856c0-0.428-0.048-0.428-0.048-0.856c0-0.428-0.05-0.428-0.05-0.856c0-0.428,0.084-0.428,0.084-0.855
		c0-0.428-0.112-0.428-0.112-0.855c0-0.428,0-0.428,0-0.855c0-0.428-0.35-0.78,0.063-0.891c0.427-0.114,0.279,0.385,0.535,0.745
		c0.256,0.36,0.28,0.343,0.537,0.703c0.256,0.359,0.255,0.36,0.511,0.72c0.255,0.359,0.214,0.388,0.469,0.747
		c0.255,0.359,0.23,0.377,0.486,0.736c0.255,0.359,0.325,0.309,0.581,0.668c0.255,0.358,0.208,0.392,0.463,0.75
		c0.255,0.359,0.294,0.331,0.549,0.69c0.254,0.358,0.271,0.346,0.525,0.704c0.254,0.358,0.157,0.427,0.411,0.785
		c0.255,0.359,0.329,0.306,0.584,0.665c0.255,0.358,0.269,0.349,0.524,0.707c0.255,0.359,0.18,0.412,0.435,0.771
		c0.255,0.358,0.323,0.309,0.578,0.667c0.255,0.359,0.267,0.35,0.522,0.709c0.255,0.358,0.261,0.354,0.516,0.712
		c0.255,0.358,0.227,0.378,0.481,0.736c0.255,0.358,0.174,0.415,0.429,0.774c0.255,0.358,0.285,0.337,0.54,0.695
		c0.254,0.358,0.32,0.311,0.574,0.669c0.254,0.358,0.227,0.377,0.481,0.734c0.255,0.358,0.212,0.388,0.467,0.746
		c0.255,0.358,0.345,0.294,0.599,0.653c0.255,0.358,0.243,0.367,0.497,0.724c0.254,0.357,0.184,0.407,0.439,0.765
		c0.254,0.357,0.264,0.35,0.518,0.707c0.254,0.357,0.295,0.328,0.549,0.685c0.254,0.357,0.272,0.345,0.526,0.702
		c0.114,0.16,0.253,0.235,0.45,0.235c0.458,0,0.458,0.063,0.916,0.063c0.458,0,0.458-0.014,0.916-0.014
		c0.457,0,0.457-0.005,0.915-0.005c0.456,0,0.456-0.014,0.913-0.014c0.457,0,0.457,0.063,0.914,0.063
		c0.457,0,0.457-0.044,0.913-0.044c0.336,0,0.671-0.267,0.671-0.603c0-0.4-0.032-0.4-0.032-0.799c0-0.4,0.005-0.4,0.005-0.799
		c0-0.399-0.026-0.399-0.026-0.798c0-0.398,0.044-0.398,0.044-0.796c0-0.113-0.144-0.186-0.204-0.281
		c-0.158-0.249-0.217-0.559-0.362-0.817c-0.144-0.257-0.347-0.484-0.479-0.749c-0.131-0.264-0.172-0.57-0.289-0.842
		c-0.117-0.271-0.273-0.524-0.376-0.803c-0.103-0.276-0.162-0.567-0.25-0.85c-0.088-0.281-0.215-0.551-0.289-0.839
		c-0.074-0.285-0.067-0.588-0.126-0.879c-0.059-0.288-0.228-0.558-0.272-0.851c-0.044-0.291,0.034-0.598,0.004-0.894
		c-0.029-0.293-0.169-0.579-0.183-0.876c-0.015-0.294,0.062-0.592,0.062-0.89s-0.047-0.594-0.033-0.888
		c0.015-0.297,0.125-0.584,0.155-0.877c0.03-0.296,0.019-0.593,0.063-0.883c0.045-0.294,0.025-0.598,0.084-0.887
		c0.059-0.291,0.22-0.557,0.293-0.842c0.074-0.287,0.08-0.593,0.168-0.874c0.089-0.283,0.155-0.575,0.258-0.852
		c0.103-0.278,0.319-0.511,0.436-0.781c0.117-0.272,0.235-0.541,0.366-0.805c0.131-0.266,0.223-0.551,0.367-0.808
		c0.145-0.258,0.251-0.542,0.408-0.791c0.061-0.096,0.136-0.171,0.136-0.284c0-0.436,0.076-0.436,0.076-0.871
		s-0.084-0.435-0.084-0.871c0-0.435-0.032-0.435-0.032-0.87c0-0.434,0.097-0.434,0.097-0.868c0-0.434,0.027-0.434,0.027-0.869
		c0-0.434-0.085-0.434-0.085-0.868c0-0.433,0.051-0.433,0.051-0.867c0-0.434-0.088-0.434-0.088-0.868
		c0-0.433,0.011-0.433,0.011-0.865c0-0.434,0.085-0.434,0.085-0.867c0-0.434-0.091-0.434-0.091-0.868c0-0.434,0.05-0.434,0.05-0.867
		c0-0.434-0.057-0.434-0.057-0.868c0-0.433,0.019-0.433,0.019-0.867c0-0.434,0.103-0.434,0.103-0.868
		c0-0.433-0.121-0.433-0.121-0.866c0-0.336-0.221-0.679-0.557-0.679c-0.46,0-0.46,0.102-0.92,0.102S27.497,0,27.037,0
		c-0.459,0-0.459,0.096-0.919,0.096c-0.458,0-0.458-0.089-0.916-0.089c-0.459,0-0.459,0.03-0.918,0.03
		c-0.458,0-0.458-0.034-0.917-0.034c-0.458,0-0.458,0.025-0.915,0.025c-0.458,0-0.458,0.011-0.917,0.011
		c-0.336,0-0.613,0.306-0.613,0.642c0,0.43-0.02,0.43-0.02,0.861s0.052,0.43,0.052,0.861c0,0.43,0.035,0.43,0.035,0.859
		c0,0.429-0.07,0.429-0.07,0.857c0,0.429,0.027,0.429,0.027,0.859c0,0.429,0.005,0.429,0.005,0.858c0,0.428,0.018,0.428,0.018,0.856
		c0,0.429-0.101,0.429-0.101,0.858c0,0.427,0.13,0.427,0.13,0.855c0,0.429-0.117,0.429-0.117,0.857c0,0.429,0.019,0.429,0.019,0.858
		c0,0.428-0.007,0.428-0.007,0.857s0.022,0.429,0.022,0.857c0,0.428,0.001,0.428,0.001,0.856c0,0.429,0.012,0.429,0.012,0.857
		c0,0.428,0.013,0.428,0.013,0.856c0,0.428,0.056,0.428,0.056,0.856c0,0.428-0.078,0.428-0.078,0.856
		c0,0.428,0.068,0.428,0.068,0.857c0,0.428-0.059,0.428-0.059,0.855c0,0.427,0.014,0.427,0.014,0.855
		c0,0.428,0.005,0.428,0.005,0.855c0,0.428,0.409,0.798-0.005,0.908c-0.427,0.114-0.285-0.4-0.541-0.76
		c-0.256-0.36-0.241-0.371-0.497-0.731c-0.256-0.36-0.275-0.346-0.53-0.705c-0.255-0.359-0.235-0.373-0.49-0.731
		c-0.255-0.359-0.233-0.375-0.488-0.734c-0.255-0.359-0.265-0.352-0.52-0.71c-0.255-0.358-0.257-0.357-0.511-0.715
		c-0.255-0.359-0.264-0.353-0.519-0.712c-0.254-0.358-0.225-0.378-0.479-0.736c-0.254-0.358-0.258-0.355-0.512-0.713
		c-0.255-0.359-0.301-0.326-0.556-0.685c-0.255-0.358-0.188-0.406-0.442-0.764c-0.255-0.359-0.247-0.364-0.502-0.723
		c-0.254-0.358-0.271-0.347-0.525-0.705c-0.255-0.359-0.253-0.36-0.508-0.718c-0.255-0.358-0.314-0.316-0.568-0.674
		s-0.272-0.346-0.526-0.704c-0.255-0.358-0.22-0.383-0.475-0.741c-0.255-0.358-0.285-0.337-0.539-0.696
		c-0.254-0.358-0.259-0.354-0.513-0.712s-0.205-0.392-0.459-0.75s-0.265-0.35-0.519-0.708C9.465,4.259,9.497,4.236,9.242,3.878
		C8.988,3.52,8.926,3.564,8.672,3.206c-0.254-0.357-0.226-0.377-0.48-0.734C7.938,2.115,7.991,2.077,7.737,1.72
		C7.483,1.363,7.454,1.384,7.2,1.027C6.946,0.67,6.891,0.709,6.637,0.351c-0.114-0.16-0.266-0.323-0.463-0.323
		c-0.459,0-0.459-0.014-0.919-0.014c-0.459,0-0.459-0.011-0.919-0.011c-0.459,0-0.459,0.07-0.917,0.07
		c-0.457,0-0.457-0.049-0.915-0.049c-0.458,0-0.458,0.007-0.916,0.007c-0.458,0-0.458,0.024-0.915,0.024
		c-0.336,0-0.557,0.291-0.557,0.627c0,0.444-0.09,0.444-0.09,0.888s0.07,0.444,0.07,0.888c0,0.443-0.03,0.443-0.03,0.887
		c0,0.442-0.04,0.442-0.04,0.884c0,0.443,0.019,0.443,0.019,0.886c0,0.442,0.015,0.442,0.015,0.885c0,0.442,0.064,0.442,0.064,0.884
		c0,0.443-0.099,0.443-0.099,0.885c0,0.441,0.072,0.441,0.072,0.882c0,0.442,0.005,0.442,0.005,0.884
		c0,0.442,0.034,0.442,0.034,0.885c0,0.442-0.024,0.442-0.024,0.884C0.113,11.744,0,11.744,0,12.186
		c0,0.442,0.022,0.442,0.022,0.883c0,0.442,0.012,0.442,0.012,0.885c0,0.442,0.087,0.442,0.087,0.883
		c0,0.442,0.016,0.442,0.016,0.883c0,0.442-0.022,0.442-0.022,0.883c0,0.442-0.078,0.442-0.078,0.884
		c0,0.441,0.047,0.441,0.047,0.882c0,0.441-0.031,0.441-0.031,0.882c0,0.441-0.042,0.441-0.042,0.882
		c0,0.442,0.009,0.442,0.009,0.884c0,0.441,0.11,0.441,0.11,0.883c0,0.441-0.049,0.441-0.049,0.882c0,0.44-0.046,0.44-0.046,0.881
		c0,0.44,0.025,0.44,0.025,0.881s-0.027,0.44-0.027,0.881c0,0.441-0.009,0.441-0.009,0.882c0,0.442,0.067,0.442,0.067,0.884
		c0,0.442,0.027,0.442,0.027,0.883c0,0.441,0.006,0.441,0.006,0.883c0,0.441-0.004,0.441-0.004,0.882
		c0,0.442-0.065,0.442-0.065,0.883s0.019,0.442,0.019,0.883c0,0.441-0.031,0.441-0.031,0.883c0,0.441,0.015,0.441,0.015,0.882
		c0,0.441-0.025,0.441-0.025,0.882c0,0.441,0.072,0.441,0.072,0.883c0,0.442-0.007,0.442-0.007,0.883
		c0,0.442-0.004,0.442-0.004,0.883c0,0.336,0.244,0.572,0.58,0.572c0.46,0,0.46,0.092,0.92,0.092c0.46,0,0.46-0.109,0.92-0.109
		c0.459,0,0.459,0.065,0.919,0.065c0.458,0,0.458-0.008,0.917-0.008c0.459,0,0.459-0.022,0.918-0.022
		c0.458,0,0.458-0.027,0.917-0.027c0.458,0,0.458,0.001,0.915,0.001c0.459,0,0.459,0.114,0.917,0.114
		C8.352,37.581,8.582,37.237,8.582,36.901z M46.93,76.57c0-0.44-0.112-0.44-0.112-0.88c0-0.439,0.084-0.439,0.084-0.879
		c0-0.439-0.05-0.439-0.05-0.878c0-0.439-0.048-0.439-0.048-0.879c0-0.439,0.087-0.439,0.087-0.879c0-0.44-0.079-0.44-0.079-0.88
		c0-0.44,0.11-0.44,0.11-0.879c0-0.44-0.072-0.44-0.072-0.879c0-0.439,0.057-0.439,0.057-0.879c0-0.44-0.092-0.44-0.092-0.879
		c0-0.44-0.024-0.44-0.024-0.88c0-0.439-0.004-0.439-0.004-0.878c0-0.439,0.067-0.439,0.067-0.877s-0.046-0.439-0.046-0.877
		c0-0.439,0.025-0.439,0.025-0.877s0.069-0.439,0.069-0.878c0-0.439-0.012-0.439-0.012-0.879c0-0.44,0.024-0.44,0.024-0.88
		c0-0.439-0.116-0.439-0.116-0.879c0-0.439,0.091-0.439,0.091-0.878c0-0.439,0.01-0.439,0.01-0.879c0-0.44-0.115-0.44-0.115-0.88
		s0.114-0.44,0.114-0.88c0-0.439,0.001-0.439,0.001-0.879c0-0.44-0.027-0.44-0.027-0.88c0-0.44-0.021-0.44-0.021-0.881
		c0-0.44-0.008-0.44-0.008-0.88c0-0.44,0.065-0.44,0.065-0.881c0-0.44-0.109-0.44-0.109-0.88c0-0.44,0.092-0.44,0.092-0.881
		c0-0.44-0.008-0.44-0.008-0.881c0-0.439,0.004-0.439,0.004-0.878c0-0.441,0.007-0.441,0.007-0.881c0-0.44-0.072-0.44-0.072-0.88
		c0-0.441,0.025-0.441,0.025-0.881c0-0.441-0.015-0.441-0.015-0.882c0-0.44,0.031-0.44,0.031-0.881c0-0.441-0.019-0.441-0.019-0.883
		c0-0.442,0.065-0.442,0.065-0.884c0-0.442,0.004-0.442,0.004-0.884c0-0.336-0.331-0.661-0.667-0.661
		c-0.425,0-0.425,0.027-0.849,0.027c-0.424,0-0.424,0.067-0.848,0.067c-0.425,0-0.425-0.009-0.849-0.009
		c-0.425,0-0.425-0.027-0.85-0.027c-0.425,0-0.425,0.025-0.849,0.025c-0.425,0-0.425-0.045-0.851-0.045
		c-0.426,0-0.426-0.049-0.852-0.049c-0.426,0-0.426,0.11-0.852,0.11c-0.336,0-0.574,0.227-0.574,0.563
		c0,0.439-0.084,0.439-0.084,0.879c0,0.44,0.117,0.44,0.117,0.88c0,0.439-0.116,0.439-0.116,0.878c0,0.439,0.119,0.439,0.119,0.877
		c0,0.438-0.075,0.438-0.075,0.877c0,0.438,0.047,0.438,0.047,0.877c0,0.439-0.039,0.439-0.039,0.878
		c0,0.439,0.051,0.439,0.051,0.879c0,0.44-0.091,0.44-0.091,0.88c0,0.439,0.074,0.439,0.074,0.878c0,0.439-0.107,0.439-0.107,0.878
		c0,0.439,0.122,0.439,0.122,0.878c0,0.44-0.044,0.44-0.044,0.88c0,0.44,0.026,0.44,0.026,0.88c0,0.439-0.005,0.439-0.005,0.879
		c0,0.44,0.032,0.44,0.032,0.879c0,0.44-0.067,0.44-0.067,0.881c0,0.44,0.044,0.44,0.044,0.879c0,0.44-0.063,0.44-0.063,0.881
		c0,0.44,0.014,0.44,0.014,0.88c0,0.44,0.005,0.44,0.005,0.881c0,0.44,0.014,0.44,0.014,0.88c0,0.439-0.063,0.439-0.063,0.878
		c0,0.441-0.003,0.441-0.003,0.881c0,0.44,0.022,0.44,0.022,0.88c0,0.44,0.05,0.44,0.05,0.881c0,0.441,0.012,0.441,0.012,0.882
		c0,0.44-0.086,0.44-0.086,0.88c0,0.441-0.015,0.441-0.015,0.883c0,0.442,0.11,0.442,0.11,0.884c0,0.442-0.052,0.442-0.052,0.884
		c0,0.067-0.02,0.148,0.002,0.211c0.138,0.406,0.214,0.38,0.352,0.785c0.138,0.406,0.173,0.394,0.311,0.799
		c0.138,0.406,0.044,0.438,0.182,0.844c0.137,0.405,0.105,0.416,0.243,0.82c0.138,0.405,0.145,0.402,0.283,0.807
		c0.138,0.406,0.151,0.401,0.289,0.808c0.138,0.406,0.218,0.378,0.355,0.784c0.138,0.406,0.05,0.436,0.188,0.842
		c0.138,0.406,0.154,0.401,0.292,0.807c0.138,0.406,0.224,0.377,0.362,0.782c0.138,0.407,0.025,0.445,0.163,0.852
		c0.138,0.407,0.157,0.401,0.296,0.808c0.138,0.407,0.183,0.392,0.322,0.8c0.084,0.247,0.308,0.465,0.569,0.465
		c0.401,0,0.401-0.086,0.801-0.086c0.401,0,0.401,0.031,0.803,0.031c0.402,0,0.402,0.051,0.804,0.051
		c0.402,0,0.402,0.001,0.804,0.001c0.336,0,0.625-0.319,0.625-0.655c0-0.439,0.019-0.439,0.019-0.878
		c0-0.439,0.037-0.439,0.037-0.879C46.93,77.01,46.93,77.01,46.93,76.57z M96.224,57.481c0-0.433,0.075-0.433,0.075-0.865
		c0-0.432-0.119-0.432-0.119-0.864c0-0.432,0.116-0.432,0.116-0.863c0-0.432-0.118-0.432-0.118-0.865
		c0-0.431,0.084-0.431,0.084-0.862c0-0.354-0.335-0.618-0.689-0.595c-0.291,0.019-0.588,0.006-0.878,0.05
		c-0.289,0.044-0.573,0.126-0.857,0.196c-0.284,0.07-0.575,0.127-0.851,0.223c-0.277,0.096-0.556,0.197-0.821,0.319
		c-0.266,0.123-0.495,0.318-0.746,0.467c-0.252,0.149-0.476,0.332-0.71,0.509c-0.233,0.177-0.447,0.367-0.658,0.57
		c-0.21,0.202-0.406,0.41-0.59,0.639c-0.182,0.226-0.402,0.426-0.555,0.679c-0.15,0.247-0.268,0.515-0.388,0.787
		c-0.116,0.263-0.202,0.531-0.287,0.817c-0.064-0.411-0.015-0.412-0.015-0.827s0.025-0.415,0.025-0.831
		c0-0.415-0.072-0.415-0.072-0.83c0-0.414,0.007-0.414,0.007-0.827c0-0.415,0.004-0.415,0.004-0.829
		c0-0.336-0.245-0.574-0.581-0.574c-0.427,0-0.427-0.092-0.854-0.092s-0.427,0.109-0.854,0.109c-0.426,0-0.426-0.065-0.853-0.065
		c-0.425,0-0.425,0.008-0.85,0.008c-0.426,0-0.426,0.022-0.852,0.022c-0.425,0-0.425,0.027-0.851,0.027
		c-0.425,0-0.425-0.001-0.85-0.001c-0.425,0-0.425-0.114-0.851-0.114c-0.336,0-0.566,0.345-0.566,0.681
		c0,0.442-0.01,0.442-0.01,0.884c0,0.442-0.091,0.442-0.091,0.885c0,0.441,0.116,0.441,0.116,0.883c0,0.441-0.024,0.441-0.024,0.881
		c0,0.441,0.012,0.441,0.012,0.882c0,0.441-0.069,0.441-0.069,0.881c0,0.44-0.025,0.44-0.025,0.88c0,0.441,0.046,0.441,0.046,0.882
		c0,0.439-0.067,0.439-0.067,0.878c0,0.44,0.004,0.44,0.004,0.881c0,0.441,0.023,0.441,0.023,0.881c0,0.44,0.092,0.44,0.092,0.881
		c0,0.44-0.057,0.44-0.057,0.881c0,0.44,0.072,0.44,0.072,0.88c0,0.44-0.11,0.44-0.11,0.881c0,0.44,0.079,0.44,0.079,0.88
		c0,0.44-0.087,0.44-0.087,0.879c0,0.44,0.048,0.44,0.048,0.88c0,0.44,0.05,0.44,0.05,0.88c0,0.439-0.084,0.439-0.084,0.879
		c0,0.439,0.112,0.439,0.112,0.878c0,0.439,0,0.439,0,0.879c0,0.44-0.037,0.44-0.037,0.88c0,0.44-0.019,0.44-0.019,0.879
		c0,0.439,0.03,0.439,0.03,0.878c0,0.439-0.001,0.439-0.001,0.877c0,0.439-0.051,0.439-0.051,0.877c0,0.439-0.031,0.439-0.031,0.878
		c0,0.439,0.086,0.439,0.086,0.878c0,0.336,0.223,0.616,0.559,0.616c0.427,0,0.427-0.047,0.854-0.047s0.427-0.02,0.854-0.02
		c0.426,0,0.426,0.12,0.852,0.12c0.425,0,0.425-0.091,0.851-0.091c0.426,0,0.426-0.017,0.852-0.017c0.425,0,0.425,0.093,0.851,0.093
		c0.425,0,0.425-0.084,0.85-0.084c0.425,0,0.425-0.014,0.851-0.014c0.336,0,0.546-0.218,0.546-0.555
		c0-0.443,0.034-0.443,0.034-0.886s0.099-0.443,0.099-0.886c0-0.442-0.037-0.442-0.037-0.885c0-0.441-0.081-0.441-0.081-0.883
		c0-0.442,0.033-0.442,0.033-0.884c0-0.441,0.052-0.441,0.052-0.883c0-0.441-0.11-0.441-0.11-0.882c0-0.441,0.014-0.441,0.014-0.883
		c0-0.44,0.086-0.44,0.086-0.88c0-0.441-0.012-0.441-0.012-0.882c0-0.442-0.05-0.442-0.05-0.883c0-0.441-0.022-0.441-0.022-0.882
		c0-0.441,0.003-0.441,0.003-0.883c0-0.294,0.077-0.574,0.105-0.844c0.03-0.291,0.061-0.571,0.122-0.835
		c0.065-0.285,0.141-0.557,0.238-0.811c0.103-0.271,0.211-0.533,0.346-0.771c0.142-0.25,0.352-0.447,0.525-0.662
		c0.179-0.222,0.339-0.454,0.547-0.641c0.21-0.189,0.472-0.304,0.706-0.458c0.236-0.154,0.461-0.316,0.715-0.437
		c0.254-0.121,0.514-0.219,0.782-0.308c0.267-0.089,0.531-0.187,0.806-0.245c0.276-0.059,0.559-0.059,0.838-0.089
		c0.282-0.031,0.557-0.169,0.836-0.173c0.285-0.004,0.565,0.114,0.841,0.137c0.355,0.029,0.628-0.286,0.628-0.643
		c0-0.434,0.091-0.434,0.091-0.868c0-0.434-0.05-0.434-0.05-0.867c0-0.433,0.038-0.433,0.038-0.866
		C96.271,57.914,96.224,57.914,96.224,57.481z M125.561,49.245c0.29,0,0.579-0.014,0.867-0.014c0.29,0,0.579-0.008,0.867-0.008
		c0.291,0,0.581,0.034,0.87,0.034c0.291,0,0.582,0.099,0.87,0.099c0.292,0,0.582-0.037,0.87-0.037c0.292,0,0.582-0.081,0.87-0.081
		c0.292,0,0.582,0.033,0.87,0.033c0.292,0,0.582,0.052,0.87,0.052c0.292,0,0.582-0.11,0.87-0.11c0.292,0,0.582,0.015,0.87,0.015
		c0.292,0,0.582,0.086,0.87,0.086c0.293,0,0.583-0.012,0.87-0.012c0.293,0,0.583-0.05,0.87-0.05c0.293,0,0.583-0.022,0.87-0.022
		c0.293,0,0.583,0.003,0.87,0.003c0.294,0,0.584,0.063,0.87,0.063c0.294,0,0.584-0.014,0.87-0.014c0.294,0,0.584-0.005,0.87-0.005
		c0.295,0,0.585-0.014,0.87-0.014c0.295,0,0.585,0.063,0.87,0.063c0.296,0,0.586-0.044,0.87-0.044c0.297,0,0.587,0.067,0.87,0.067
		c0.298,0,0.588-0.032,0.869-0.032c0.299,0,0.589,0.005,0.869,0.005c0.301,0,0.591-0.026,0.869-0.026
		c0.304,0,0.594,0.044,0.869,0.044c0.308,0,0.598-0.122,0.869-0.122c0.316,0,0.606,0.107,0.869,0.107
		c0.336,0,0.627-0.074,0.869-0.074c0.567,0,0.786,0.465,0.923,0.052c0.144-0.433-0.047-0.474-0.047-0.929
		c0-0.456,0.038-0.456,0.038-0.912c0-0.455-0.047-0.455-0.047-0.91c0-0.454,0.075-0.454,0.075-0.908c0-0.455-0.119-0.455-0.119-0.91
		c0-0.454,0.116-0.454,0.116-0.909c0-0.454-0.117-0.454-0.117-0.907c0-0.454,0.225-0.489,0.082-0.92
		c-0.136-0.411-0.335,0.049-0.899,0.049c-0.242,0-0.532-0.028-0.868-0.028c-0.262,0-0.552,0.005-0.868,0.005
		c-0.271,0-0.561-0.079-0.87-0.079c-0.276,0-0.566,0.011-0.871,0.011c-0.278,0-0.568,0.036-0.869,0.036
		c-0.28,0-0.571,0.022-0.87,0.022c-0.282,0-0.572,0.035-0.87,0.035c-0.283,0-0.573-0.056-0.869-0.056c-0.284,0-0.574,0.06-0.87,0.06
		c-0.285,0-0.575-0.05-0.871-0.05c-0.285,0-0.576,0.034-0.871,0.034c-0.286,0-0.576-0.006-0.871-0.006
		c-0.286,0-0.577-0.007-0.871-0.007c-0.287,0-0.577,0.019-0.871,0.019c-0.287,0-0.577-0.019-0.871-0.019
		c-0.287,0-0.577,0.018-0.87,0.018c-0.287,0-0.577-0.085-0.87-0.085c-0.288,0-0.578,0.064-0.87,0.064
		c-0.288,0-0.578,0.006-0.87,0.006c-0.288,0-0.579,0.012-0.871,0.012c-0.288,0-0.579-0.029-0.871-0.029
		c-0.289,0-0.579-0.054-0.871-0.054c-0.289,0-0.579,0.089-0.872,0.089c-0.289,0-0.579,0.008-0.872,0.008
		c-0.289,0-0.58-0.059-0.872-0.059c-0.289,0-0.58-0.025-0.872-0.025c-0.289,0-0.58,0.065-0.872,0.065
		c-0.289,0-0.58-0.017-0.872-0.017c-0.289,0-0.58,0.008-0.872,0.008c-0.29,0-0.581,0.004-0.872,0.004
		c-0.29,0-0.581-0.042-0.872-0.042c-0.29,0-0.581-0.025-0.872-0.025c-0.29,0-0.581,0.017-0.872,0.017c-0.29,0-0.581,0-0.872,0
		c-0.29,0-0.581-0.003-0.872-0.003c-0.29,0-0.581,0.103-0.872,0.103c-0.29,0-0.581-0.022-0.872-0.022
		c-0.29,0-0.581-0.065-0.872-0.065c-0.29,0-0.581-0.031-0.872-0.031s-0.582,0.089-0.873,0.089c-0.291,0-0.582-0.022-0.873-0.022
		c-0.29,0-0.581-0.002-0.872-0.002c-0.29,0-0.581,0.048-0.871,0.048c-0.29,0-0.58-0.096-0.87-0.096c-0.29,0-0.58,0.042-0.87,0.042
		c-0.29,0-0.579,0.029-0.869,0.029c-0.29,0-0.58-0.032-0.87-0.032c-0.29,0-0.58-0.06-0.869-0.06c-0.29,0-0.58,0.035-0.869,0.035
		c-0.29,0-0.58,0.047-0.869,0.047c-0.29,0-0.579,0.006-0.868,0.006c-0.29,0-0.579,0.01-0.868,0.01c-0.29,0-0.579-0.005-0.868-0.005
		c-0.29,0-0.579,0.016-0.867,0.016c-0.291,0-0.581-0.087-0.87-0.087c-0.291,0-0.581-0.038-0.87-0.038
		c-0.291,0-0.581,0.087-0.87,0.087c-0.291,0-0.581,0.03-0.87,0.03c-0.291,0-0.581-0.036-0.87-0.036c-0.291,0-0.581,0.019-0.87,0.019
		c-0.291,0-0.581,0.015-0.869,0.015c-0.292,0-0.582-0.083-0.869-0.083c-0.292,0-0.582,0.016-0.869,0.016
		c-0.292,0-0.582,0.011-0.869,0.011c-0.292,0-0.582-0.011-0.869-0.011c-0.292,0-0.582,0.016-0.869,0.016
		c-0.292,0-0.582-0.022-0.869-0.022c-0.293,0-0.582-0.035-0.869-0.035c-0.293,0-0.583,0.014-0.869,0.014
		c-0.293,0-0.583,0.108-0.869,0.108c-0.294,0-0.584-0.068-0.87-0.068c-0.294,0-0.584,0.064-0.87,0.064
		c-0.294,0-0.584-0.105-0.87-0.105c-0.295,0-0.585-0.008-0.87-0.008c-0.296,0-0.586,0.103-0.87,0.103
		c-0.297,0-0.587-0.041-0.87-0.041c-0.298,0-0.588-0.06-0.87-0.06c-0.299,0-0.589-0.007-0.87-0.007c-0.301,0-0.59,0.067-0.869,0.067
		c-0.303,0-0.593-0.037-0.868-0.037c-0.307,0-0.597,0.082-0.868,0.082c-0.315,0-0.605-0.046-0.87-0.046
		c-0.331,0-0.621,0.052-0.868,0.052c-0.415,0-0.708-0.106-0.868-0.106c-0.295,0-0.579,0.013-0.851,0.012
		c-0.297-0.001-0.582,0.089-0.851,0.083c-0.3-0.007-0.579-0.127-0.845-0.145c-0.303-0.019-0.597,0.065-0.855,0.026
		c-0.308-0.047-0.588-0.13-0.831-0.215c-0.293-0.103-0.507-0.299-0.701-0.476c-0.204-0.186-0.309-0.421-0.402-0.713
		c-0.076-0.238-0.222-0.497-0.222-0.82c0-0.432,0-0.432,0-0.864c0-0.432-0.001-0.432-0.001-0.864c0-0.431,0.029-0.431,0.029-0.862
		c0-0.43,0.089-0.43,0.089-0.86c0-0.431-0.047-0.431-0.047-0.861c0-0.43-0.073-0.43-0.073-0.86c0-0.43,0.097-0.43,0.097-0.859
		c0-0.43-0.079-0.43-0.079-0.861c0-0.429-0.032-0.429-0.032-0.858c0-0.43,0.113-0.43,0.113-0.86c0-0.43-0.006-0.43-0.006-0.86
		c0-0.43-0.052-0.43-0.052-0.86s-0.054-0.43-0.054-0.86c0-0.429,0.053-0.429,0.053-0.859c0-0.43,0.077-0.43,0.077-0.86
		c0-0.429-0.084-0.429-0.084-0.859c0-0.429-0.032-0.429-0.032-0.859c0-0.43,0.097-0.43,0.097-0.859c0-0.43,0.027-0.43,0.027-0.859
		c0-0.429-0.085-0.429-0.085-0.858c0-0.429,0.051-0.429,0.051-0.858c0-0.429-0.088-0.429-0.088-0.858c0-0.43,0.011-0.43,0.011-0.859
		c0-0.429,0.085-0.429,0.085-0.859c0-0.336,0.225-0.652,0.561-0.652c0.43,0,0.43,0.05,0.86,0.05s0.43-0.057,0.86-0.057
		c0.429,0,0.429,0.019,0.859,0.019c0.429,0,0.429,0.103,0.857,0.103c0.429,0,0.429-0.121,0.858-0.121
		c0.336,0,0.679-0.221,0.679-0.557c0-0.465-0.102-0.465-0.102-0.929c0-0.464,0.104-0.464,0.104-0.929
		c0-0.464-0.096-0.464-0.096-0.928c0-0.463,0.089-0.463,0.089-0.925c0-0.463-0.03-0.463-0.03-0.927c0-0.463,0.034-0.463,0.034-0.926
		c0-0.462-0.025-0.462-0.025-0.925c0-0.336-0.317-0.642-0.653-0.642c-0.43,0-0.43,0.028-0.86,0.028c-0.43,0-0.43-0.02-0.86-0.02
		c-0.43,0-0.43,0.052-0.859,0.052c-0.429,0-0.429,0.035-0.857,0.035c-0.429,0-0.429-0.07-0.858-0.07
		c-0.336,0-0.625-0.263-0.625-0.599c0-0.434-0.005-0.434-0.005-0.868s-0.018-0.434-0.018-0.868c0-0.434,0.101-0.434,0.101-0.867
		c0-0.433-0.131-0.433-0.131-0.865c0-0.433,0.117-0.433,0.117-0.866c0-0.433-0.018-0.433-0.018-0.865
		c0-0.432,0.007-0.432,0.007-0.864c0-0.407-0.434-0.713-0.824-0.596c-0.426,0.128-0.426,0.129-0.852,0.257
		c-0.426,0.128-0.423,0.139-0.849,0.267c-0.425,0.128-0.422,0.14-0.847,0.268c-0.425,0.127-0.408,0.181-0.833,0.308
		c-0.425,0.128-0.448,0.053-0.873,0.181c-0.425,0.128-0.405,0.193-0.83,0.32c-0.424,0.127-0.441,0.071-0.865,0.199
		c-0.425,0.127-0.42,0.141-0.845,0.269c-0.257,0.077-0.419,0.3-0.419,0.569c0,0.403,0.034,0.403,0.034,0.806
		c0,0.403-0.033,0.403-0.033,0.806c0,0.402-0.018,0.402-0.018,0.805c0,0.401,0.024,0.401,0.024,0.803
		c0,0.402-0.024,0.402-0.024,0.804c0,0.336-0.273,0.581-0.609,0.581c-0.384,0-0.384,0.012-0.769,0.012
		c-0.384,0-0.384,0.003-0.769,0.003c-0.384,0-0.384,0.011-0.767,0.011c-0.383,0-0.383-0.036-0.766-0.036
		c-0.336,0-0.64,0.309-0.64,0.645c0,0.465,0.056,0.465,0.056,0.929c0,0.465-0.082,0.465-0.082,0.929
		c0,0.464-0.009,0.464-0.009,0.928c0,0.463,0.02,0.463,0.02,0.925c0,0.463-0.002,0.463-0.002,0.927c0,0.463,0.073,0.463,0.073,0.926
		c0,0.462,0.021,0.462,0.021,0.924c0,0.336,0.228,0.605,0.564,0.605c0.384,0,0.384-0.037,0.769-0.037
		c0.384,0,0.384-0.006,0.769-0.006c0.384,0,0.384,0.06,0.767,0.06c0.383,0,0.383-0.013,0.766-0.013c0.336,0,0.567,0.27,0.567,0.606
		c0,0.432,0.076,0.432,0.076,0.864s-0.034,0.432-0.034,0.864c0,0.431-0.065,0.431-0.065,0.862c0,0.43,0.037,0.43,0.037,0.86
		c0,0.431,0.067,0.431,0.067,0.862c0,0.43-0.085,0.43-0.085,0.86c0,0.43-0.014,0.43-0.014,0.859c0,0.43-0.011,0.43-0.011,0.861
		c0,0.429,0.07,0.429,0.07,0.858c0,0.43-0.049,0.43-0.049,0.86c0,0.43,0.007,0.43,0.007,0.861c0,0.43,0.024,0.43,0.024,0.86
		s0.07,0.43,0.07,0.86c0,0.429-0.09,0.429-0.09,0.859c0,0.43,0.07,0.43,0.07,0.86c0,0.43-0.03,0.43-0.03,0.859
		c0,0.429-0.04,0.429-0.04,0.859c0,0.43,0.019,0.43,0.019,0.859c0,0.429,0.015,0.429,0.015,0.859c0,0.429,0.064,0.429,0.064,0.858
		c0,0.429-0.099,0.429-0.099,0.858c0,0.429,0.072,0.429,0.072,0.858c0,0.43,0.005,0.43,0.005,0.859c0,0.429,0.034,0.429,0.034,0.859
		c0,0.306-0.02,0.602-0.011,0.891c0.009,0.307-0.089,0.609-0.069,0.896c0.021,0.307,0.071,0.603,0.106,0.888
		c0.037,0.305,0.094,0.599,0.149,0.88c0.058,0.302,0.21,0.569,0.29,0.844c0.085,0.295,0.195,0.562,0.307,0.827
		c0.118,0.28,0.229,0.546,0.38,0.794c0.156,0.256,0.266,0.54,0.459,0.763c0.192,0.222,0.437,0.396,0.67,0.588
		c0.223,0.184,0.447,0.38,0.71,0.537c0.245,0.147,0.493,0.322,0.775,0.448c0.261,0.116,0.546,0.216,0.84,0.314
		c0.271,0.09,0.586,0.068,0.886,0.144c0.277,0.07,0.554,0.182,0.857,0.24c0.282,0.055,0.568,0.149,0.874,0.194
		c0.285,0.042,0.584,0.055,0.891,0.089c0.287,0.032,0.58,0.087,0.886,0.112c0.288,0.023,0.585,0.054,0.89,0.072
		c0.289,0.017,0.589-0.036,0.895-0.024c0.289,0.012,0.587-0.006,0.891,0.001c0.29,0.007,0.587,0.006,0.891,0.01
		c0.291,0.003,0.588,0.009,0.892,0.009c0.261,0,0.55,0.065,0.866,0.065c0.27,0,0.559-0.019,0.867-0.019
		c0.275,0,0.565,0.031,0.869,0.031c0.279,0,0.569-0.015,0.871-0.015c0.28,0,0.57,0.025,0.87,0.025c0.281,0,0.571-0.072,0.869-0.072
		c0.283,0,0.573,0.007,0.87,0.007c0.284,0,0.574,0.004,0.871,0.004c0.285,0,0.576-0.008,0.872-0.008
		c0.285,0,0.576,0.092,0.871,0.092c0.286,0,0.576-0.109,0.871-0.109c0.286,0,0.576,0.065,0.87,0.065
		c0.286,0,0.577-0.008,0.871-0.008c0.287,0,0.578-0.022,0.872-0.022c0.287,0,0.578-0.027,0.871-0.027
		c0.288,0,0.578,0.001,0.871,0.001c0.288,0,0.578,0.114,0.871,0.114c0.288,0,0.578-0.115,0.871-0.115c0.288,0,0.579,0.01,0.871,0.01
		c0.288,0,0.579,0.091,0.871,0.091c0.288,0,0.579-0.116,0.871-0.116c0.288,0,0.579,0.024,0.871,0.024
		c0.288,0,0.579-0.012,0.87-0.012c0.289,0,0.579,0.069,0.87,0.069c0.289,0,0.579,0.025,0.87,0.025c0.289,0,0.579-0.046,0.871-0.046
		c0.289,0,0.579,0.067,0.871,0.067c0.289,0,0.579-0.004,0.871-0.004c0.289,0,0.58-0.023,0.871-0.023c0.289,0,0.58-0.092,0.871-0.092
		c0.289,0,0.58,0.057,0.871,0.057c0.29,0,0.58-0.072,0.871-0.072c0.29,0,0.58,0.11,0.871,0.11c0.29,0,0.58-0.079,0.871-0.079
		c0.29,0,0.58,0.087,0.871,0.087c0.291,0,0.582-0.048,0.873-0.048c0.291,0,0.582-0.05,0.873-0.05c0.291,0,0.582,0.084,0.873,0.084
		c0.291,0,0.582-0.112,0.873-0.112c0.291,0,0.581,0,0.872,0c0.29,0,0.581,0.037,0.872,0.037c0.29,0,0.581,0.019,0.871,0.019
		c0.29,0,0.581-0.03,0.871-0.03s0.58,0.001,0.87,0.001c0.29,0,0.58,0.051,0.87,0.051c0.29,0,0.58,0.031,0.869,0.031
		c0.29,0,0.579-0.086,0.869-0.086c0.29,0,0.58,0.058,0.87,0.058c0.29,0,0.58-0.047,0.869-0.047c0.29,0,0.58-0.02,0.869-0.02
		c0.29,0,0.58,0.12,0.869,0.12c0.29,0,0.58-0.091,0.868-0.091c0.29,0,0.58-0.017,0.868-0.017c0.29,0,0.579,0.093,0.868,0.093
		C124.984,49.33,125.273,49.245,125.561,49.245z M151.897,73.309c-0.372-0.213-0.397-0.169-0.768-0.382
		c-0.372-0.213-0.353-0.247-0.724-0.459c-0.371-0.213-0.395-0.172-0.766-0.384c-0.37-0.212-0.333-0.277-0.703-0.489
		c-0.371-0.213-0.43-0.109-0.801-0.322c-0.37-0.212-0.313-0.313-0.683-0.525c-0.37-0.212-0.428-0.11-0.798-0.322
		c-0.37-0.212-0.329-0.285-0.699-0.497c-0.286-0.164-0.699-0.059-0.872,0.222c-0.145,0.234-0.247,0.499-0.428,0.704
		c-0.181,0.205-0.406,0.371-0.621,0.544c-0.212,0.171-0.471,0.269-0.711,0.407c-0.235,0.135-0.461,0.283-0.719,0.385
		c-0.251,0.098-0.494,0.245-0.765,0.311c-0.262,0.064-0.547,0.029-0.824,0.061c-0.267,0.031-0.536,0.032-0.816,0.032
		c-0.301,0-0.586-0.029-0.872-0.066c-0.297-0.038-0.595-0.027-0.873-0.103c-0.288-0.079-0.545-0.222-0.811-0.339
		c-0.272-0.119-0.528-0.249-0.774-0.406c-0.249-0.159-0.494-0.315-0.713-0.51c-0.219-0.195-0.475-0.361-0.662-0.59
		c-0.185-0.226-0.28-0.519-0.43-0.776c-0.147-0.25-0.34-0.483-0.451-0.76c-0.108-0.268-0.171-0.56-0.243-0.851
		c-0.07-0.279-0.083-0.574-0.117-0.873c-0.033-0.285-0.069-0.575-0.069-0.877s0.002-0.595,0.036-0.881
		c0.035-0.299,0.026-0.603,0.096-0.882c0.073-0.291,0.257-0.541,0.365-0.809c0.112-0.277,0.176-0.572,0.323-0.822
		c0.15-0.256,0.318-0.505,0.502-0.731c0.187-0.229,0.372-0.471,0.591-0.666c0.219-0.195,0.476-0.359,0.725-0.518
		c0.246-0.157,0.557-0.196,0.829-0.316c0.266-0.117,0.528-0.233,0.817-0.312c0.279-0.076,0.56-0.145,0.857-0.183
		c0.286-0.037,0.576-0.142,0.877-0.142c0.28,0,0.562,0,0.829,0.032c0.278,0.032,0.551,0.103,0.812,0.168
		c0.271,0.067,0.509,0.225,0.76,0.324c0.258,0.103,0.524,0.18,0.758,0.317c0.239,0.139,0.447,0.32,0.658,0.492
		c0.213,0.173,0.378,0.389,0.56,0.594c0.181,0.204,0.348,0.411,0.496,0.644c0.175,0.277,0.542,0.288,0.825,0.124
		c0.372-0.216,0.397-0.174,0.769-0.39c0.372-0.216,0.395-0.177,0.767-0.393c0.372-0.216,0.359-0.238,0.731-0.454
		c0.371-0.215,0.384-0.192,0.755-0.408c0.371-0.216,0.376-0.207,0.747-0.423c0.371-0.216,0.337-0.274,0.708-0.49
		c0.37-0.215,0.357-0.239,0.727-0.454c0.371-0.216,0.368-0.221,0.739-0.437c0.302-0.175,0.373-0.486,0.187-0.782
		c-0.154-0.245-0.263-0.521-0.434-0.755c-0.171-0.234-0.365-0.451-0.551-0.673c-0.186-0.222-0.357-0.458-0.558-0.668
		c-0.2-0.209-0.419-0.401-0.634-0.597c-0.214-0.195-0.419-0.404-0.645-0.585c-0.226-0.181-0.501-0.298-0.738-0.465
		c-0.237-0.166-0.474-0.33-0.722-0.481c-0.247-0.151-0.495-0.297-0.752-0.433c-0.256-0.135-0.518-0.255-0.783-0.375
		c-0.263-0.119-0.497-0.315-0.769-0.419c-0.27-0.102-0.58-0.094-0.858-0.181c-0.276-0.086-0.537-0.226-0.82-0.295
		c-0.28-0.069-0.566-0.121-0.853-0.173c-0.284-0.051-0.574-0.073-0.863-0.108c-0.286-0.034-0.576-0.033-0.867-0.051
		c-0.288-0.017-0.575-0.027-0.867-0.027c-0.289,0-0.58-0.107-0.863-0.091c-0.289,0.016-0.566,0.153-0.849,0.184
		c-0.287,0.032-0.569,0.061-0.85,0.108c-0.285,0.048-0.584,0.014-0.861,0.078c-0.281,0.064-0.529,0.248-0.802,0.328
		c-0.276,0.081-0.554,0.145-0.822,0.241c-0.271,0.097-0.531,0.213-0.793,0.325c-0.264,0.113-0.552,0.172-0.807,0.3
		c-0.257,0.129-0.522,0.245-0.768,0.389c-0.248,0.145-0.467,0.337-0.704,0.497c-0.238,0.16-0.511,0.275-0.738,0.449
		c-0.227,0.175-0.449,0.363-0.664,0.551c-0.216,0.189-0.411,0.404-0.614,0.606c-0.203,0.202-0.333,0.473-0.523,0.688
		c-0.19,0.214-0.416,0.397-0.592,0.623c-0.176,0.226-0.285,0.498-0.446,0.735c-0.161,0.236-0.407,0.419-0.553,0.666
		c-0.145,0.246-0.215,0.535-0.345,0.791c-0.13,0.254-0.331,0.477-0.446,0.74c-0.114,0.261-0.176,0.547-0.274,0.818
		c-0.098,0.268-0.14,0.555-0.221,0.831c-0.081,0.273-0.235,0.529-0.3,0.81c-0.064,0.277-0.012,0.579-0.06,0.864
		c-0.048,0.281-0.088,0.56-0.12,0.847c-0.032,0.283-0.093,0.562-0.108,0.85c-0.016,0.284-0.042,0.568-0.042,0.857
		c0,0.289,0.038,0.573,0.053,0.857c0.016,0.288,0.039,0.571,0.07,0.854c0.032,0.286,0.022,0.576,0.07,0.856
		c0.049,0.284,0.075,0.572,0.14,0.85c0.065,0.28,0.222,0.535,0.302,0.808c0.082,0.276,0.116,0.565,0.214,0.832
		c0.098,0.27,0.248,0.518,0.361,0.779c0.115,0.264,0.253,0.511,0.383,0.766c0.131,0.256,0.164,0.564,0.31,0.81
		c0.146,0.247,0.377,0.44,0.538,0.677c0.161,0.237,0.342,0.457,0.518,0.682c0.176,0.226,0.287,0.506,0.477,0.72
		c0.19,0.215,0.448,0.365,0.651,0.567c0.203,0.202,0.42,0.385,0.635,0.574c0.215,0.188,0.439,0.362,0.666,0.537
		c0.226,0.174,0.436,0.368,0.674,0.528c0.237,0.159,0.428,0.396,0.676,0.541c0.246,0.144,0.518,0.25,0.775,0.38
		c0.255,0.128,0.548,0.176,0.812,0.29c0.262,0.112,0.514,0.248,0.786,0.345c0.268,0.096,0.525,0.235,0.802,0.315
		c0.273,0.08,0.578,0.046,0.859,0.11c0.277,0.063,0.552,0.133,0.837,0.181c0.28,0.047,0.552,0.172,0.839,0.203
		c0.283,0.031,0.57,0.043,0.859,0.058c0.284,0.015,0.571-0.027,0.86-0.027c0.293,0,0.581-0.03,0.87-0.047
		c0.293-0.017,0.58-0.04,0.867-0.074c0.29-0.034,0.586-0.015,0.871-0.066c0.288-0.052,0.57-0.126,0.851-0.195
		c0.284-0.069,0.563-0.152,0.839-0.238c0.279-0.086,0.549-0.194,0.819-0.297c0.273-0.104,0.566-0.158,0.83-0.278
		c0.266-0.121,0.508-0.289,0.764-0.426c0.258-0.137,0.545-0.224,0.792-0.377c0.248-0.153,0.476-0.342,0.712-0.51
		c0.238-0.169,0.474-0.343,0.699-0.526c0.226-0.184,0.43-0.395,0.643-0.593c0.213-0.198,0.452-0.373,0.652-0.585
		c0.2-0.212,0.301-0.51,0.486-0.735c0.185-0.224,0.447-0.389,0.617-0.625c0.169-0.236,0.27-0.519,0.423-0.767
		C152.233,73.902,152.2,73.482,151.897,73.309z M180.193,73.942c0-0.439,0.051-0.439,0.051-0.878c0-0.439-0.06-0.439-0.06-0.878
		c0-0.439,0.056-0.439,0.056-0.878c0-0.438-0.035-0.438-0.035-0.876c0-0.439-0.022-0.439-0.022-0.879
		c0-0.439-0.036-0.439-0.036-0.877c0-0.439-0.012-0.439-0.012-0.878c0-0.44,0.079-0.44,0.079-0.879c0-0.439-0.005-0.439-0.005-0.878
		c0-0.44,0.028-0.44,0.028-0.88c0-0.441-0.016-0.441-0.016-0.882c0-0.441-0.059-0.441-0.059-0.882c0-0.301,0.026-0.596,0.01-0.885
		c-0.016-0.3,0.004-0.599-0.029-0.887c-0.034-0.299-0.07-0.594-0.121-0.879c-0.053-0.296-0.171-0.573-0.241-0.854
		c-0.073-0.291-0.187-0.562-0.278-0.837c-0.094-0.284-0.114-0.591-0.226-0.858c-0.116-0.276-0.23-0.553-0.364-0.81
		c-0.138-0.265-0.29-0.523-0.447-0.768c-0.161-0.251-0.41-0.437-0.589-0.666c-0.183-0.234-0.323-0.502-0.524-0.714
		c-0.204-0.215-0.464-0.369-0.684-0.561c-0.223-0.194-0.432-0.401-0.671-0.571c-0.24-0.171-0.475-0.351-0.73-0.498
		c-0.255-0.147-0.53-0.257-0.798-0.379c-0.267-0.122-0.55-0.2-0.829-0.297c-0.276-0.097-0.562-0.152-0.849-0.224
		c-0.284-0.072-0.558-0.18-0.85-0.227c-0.289-0.047-0.575-0.137-0.87-0.16c-0.291-0.023-0.588,0.034-0.885,0.034
		c-0.294,0-0.585-0.075-0.867-0.057c-0.293,0.018-0.568,0.163-0.848,0.199c-0.291,0.038-0.593-0.029-0.869,0.028
		c-0.287,0.059-0.537,0.243-0.807,0.322c-0.282,0.082-0.575,0.103-0.838,0.205c-0.273,0.106-0.514,0.266-0.766,0.392
		c-0.261,0.132-0.528,0.24-0.765,0.392c-0.246,0.158-0.446,0.365-0.665,0.545c-0.225,0.184-0.497,0.312-0.693,0.516
		c-0.201,0.21-0.398,0.463-0.566,0.693c-0.11-0.428,0.106-0.451,0.107-0.893c0-0.442-0.122-0.442-0.122-0.883
		c0-0.442,0.044-0.442,0.044-0.883c0-0.442-0.026-0.442-0.026-0.884c0-0.442,0.005-0.442,0.005-0.884
		c0-0.442-0.032-0.442-0.031-0.884c0-0.442,0.068-0.442,0.068-0.884c0-0.442-0.044-0.442-0.044-0.883
		c0-0.442,0.063-0.442,0.063-0.884c0-0.442-0.014-0.442-0.013-0.885c0-0.441-0.005-0.441-0.005-0.883
		c0-0.441-0.014-0.441-0.014-0.882c0-0.441,0.063-0.441,0.063-0.882c0-0.441,0.003-0.441,0.003-0.882
		c0-0.441-0.022-0.441-0.021-0.882c0-0.442-0.05-0.442-0.05-0.884c0-0.442-0.012-0.442-0.012-0.885c0-0.442,0.086-0.442,0.086-0.883
		c0-0.441,0.015-0.441,0.015-0.883c0-0.442-0.11-0.442-0.11-0.883c0-0.443,0.052-0.442,0.052-0.885c0-0.442,0.033-0.442,0.034-0.885
		c0-0.442-0.08-0.442-0.08-0.884c0-0.442-0.037-0.442-0.037-0.884c0-0.443,0.099-0.443,0.099-0.885c0-0.442,0.034-0.442,0.035-0.884
		c0-0.443-0.008-0.443-0.008-0.885c0-0.442-0.014-0.443-0.014-0.885c0-0.443-0.084-0.443-0.084-0.886
		c0-0.443,0.093-0.443,0.093-0.885c0-0.441-0.017-0.441-0.017-0.883c0-0.443-0.091-0.443-0.091-0.886c0-0.442,0.12-0.442,0.12-0.884
		c0-0.443-0.02-0.443-0.019-0.886c0-0.443-0.047-0.443-0.047-0.887c0-0.443,0.058-0.443,0.058-0.885
		c0-0.444-0.086-0.444-0.086-0.887c0-0.444,0.031-0.444,0.031-0.889c0-0.444,0.051-0.444,0.051-0.889
		c0-0.301-0.007-0.598-0.023-0.887c-0.016-0.3-0.071-0.593-0.103-0.881c-0.034-0.299-0.058-0.595-0.109-0.879
		c-0.053-0.295-0.079-0.595-0.149-0.875c-0.073-0.291-0.156-0.579-0.246-0.853c-0.094-0.284-0.302-0.522-0.414-0.789
		c-0.116-0.276-0.165-0.578-0.3-0.835c-0.138-0.265-0.33-0.495-0.486-0.74c-0.16-0.251-0.368-0.461-0.547-0.69
		c-0.183-0.234-0.308-0.514-0.508-0.726c-0.203-0.215-0.47-0.362-0.69-0.554c-0.222-0.194-0.386-0.463-0.624-0.634
		c-0.24-0.171-0.528-0.271-0.783-0.419c-0.254-0.147-0.491-0.334-0.758-0.457c-0.266-0.122-0.574-0.147-0.852-0.245
		c-0.276-0.097-0.56-0.158-0.846-0.231c-0.284-0.072-0.567-0.127-0.858-0.175c-0.288-0.047-0.569-0.149-0.864-0.172
		c-0.291-0.023-0.585,0.011-0.881,0.011c-0.294,0-0.581-0.016-0.863,0.001c-0.294,0.018-0.588-0.023-0.868,0.014
		c-0.291,0.038-0.576,0.098-0.852,0.154c-0.288,0.059-0.576,0.105-0.846,0.183c-0.282,0.082-0.518,0.283-0.78,0.385
		c-0.273,0.106-0.572,0.139-0.824,0.266c-0.262,0.132-0.52,0.268-0.757,0.42c-0.246,0.158-0.41,0.419-0.629,0.598
		c-0.225,0.185-0.512,0.295-0.708,0.501c-0.2,0.21-0.312,0.45-0.479,0.68c-0.107-0.462-0.026-0.465-0.026-0.939
		c0-0.475-0.022-0.475-0.022-0.949c0-0.336-0.267-0.595-0.603-0.595c-0.426,0-0.426-0.065-0.851-0.065
		c-0.425,0-0.425,0.109-0.85,0.109c-0.425,0-0.425-0.092-0.851-0.092c-0.426,0-0.426,0.008-0.852,0.008
		c-0.425,0-0.425-0.004-0.85-0.004c-0.426,0-0.426-0.007-0.853-0.007c-0.427,0-0.427,0.072-0.854,0.072
		c-0.427,0-0.427-0.025-0.854-0.025c-0.336,0-0.586,0.265-0.586,0.601c0,0.439-0.031,0.439-0.031,0.879
		c0,0.439,0.019,0.439,0.019,0.878c0,0.439-0.065,0.439-0.065,0.877c0,0.439-0.004,0.439-0.004,0.877
		c0,0.439,0.006,0.439,0.006,0.878c0,0.44,0.027,0.44,0.027,0.879c0,0.44,0.067,0.44,0.067,0.88c0,0.439-0.009,0.439-0.009,0.879
		c0,0.439-0.027,0.439-0.027,0.878c0,0.439,0.025,0.439,0.025,0.879c0,0.44-0.046,0.44-0.046,0.88c0,0.44-0.049,0.44-0.049,0.88
		c0,0.44,0.11,0.44,0.11,0.879c0,0.44,0.009,0.44,0.009,0.88c0,0.44-0.042,0.44-0.042,0.881c0,0.44-0.031,0.44-0.031,0.88
		c0,0.44,0.047,0.44,0.047,0.881c0,0.44-0.078,0.44-0.078,0.88c0,0.441-0.022,0.441-0.022,0.881c0,0.44,0.016,0.44,0.016,0.881
		c0,0.439,0.087,0.439,0.087,0.878c0,0.441,0.012,0.441,0.012,0.882c0,0.44,0.022,0.44,0.022,0.88c0,0.441-0.113,0.441-0.113,0.881
		c0,0.441-0.024,0.441-0.024,0.882c0,0.441,0.034,0.441,0.034,0.881c0,0.442,0.005,0.442,0.005,0.883
		c0,0.442,0.072,0.442,0.072,0.885s-0.099,0.442-0.099,0.884c0,0.336,0.331,0.604,0.667,0.604c0.425,0,0.425-0.015,0.851-0.015
		c0.425,0,0.425-0.019,0.85-0.019c0.425,0,0.425,0.04,0.851,0.04c0.426,0,0.426,0.03,0.852,0.03c0.425,0,0.425-0.071,0.85-0.071
		c0.426,0,0.426,0.09,0.852,0.09c0.427,0,0.427-0.07,0.854-0.07c0.427,0,0.427-0.024,0.854-0.024c0.336,0,0.559-0.23,0.559-0.566
		c0-0.436,0.049-0.436,0.049-0.873c0-0.437-0.07-0.437-0.07-0.874c0-0.436,0.011-0.436,0.011-0.873c0-0.437,0.014-0.437,0.014-0.874
		c0-0.437,0.084-0.437,0.084-0.873c0-0.437-0.067-0.437-0.067-0.874c0-0.437-0.037-0.437-0.037-0.873
		c0-0.436,0.065-0.436,0.065-0.872c0-0.437,0.034-0.437,0.034-0.874c0-0.436-0.076-0.436-0.076-0.873
		c0-0.437,0.039-0.437,0.039-0.874c0-0.438-0.013-0.438-0.013-0.875c0-0.437,0.06-0.437,0.06-0.874c0-0.438-0.006-0.438-0.006-0.876
		c0-0.439-0.037-0.439-0.037-0.878c0-0.439,0.042-0.439,0.042-0.877c0-0.294-0.009-0.574,0.014-0.843
		c0.026-0.294-0.006-0.584,0.047-0.848c0.058-0.289,0.134-0.567,0.222-0.822c0.096-0.278,0.196-0.552,0.326-0.79
		c0.14-0.255,0.313-0.493,0.489-0.703c0.184-0.219,0.446-0.357,0.666-0.528c0.221-0.172,0.432-0.368,0.687-0.493
		c0.248-0.121,0.516-0.227,0.793-0.305c0.264-0.074,0.55-0.094,0.837-0.13c0.271-0.033,0.553-0.061,0.843-0.061
		c0.288,0,0.572,0.017,0.845,0.057c0.284,0.041,0.566,0.092,0.83,0.176c0.272,0.087,0.524,0.223,0.769,0.356
		c0.248,0.135,0.465,0.312,0.68,0.496c0.211,0.181,0.42,0.367,0.593,0.596c0.165,0.218,0.295,0.466,0.42,0.729
		c0.117,0.245,0.181,0.514,0.259,0.798c0.071,0.26,0.158,0.524,0.193,0.817c0.033,0.268,0.054,0.547,0.054,0.843
		c0,0.437,0.014,0.437,0.014,0.874s-0.059,0.437-0.059,0.874c0,0.437,0.068,0.437,0.068,0.874c0,0.437-0.078,0.437-0.078,0.874
		c0,0.437,0.056,0.437,0.056,0.874c0,0.438,0.013,0.438,0.013,0.875c0,0.438,0.012,0.438,0.012,0.876
		c0,0.438,0.001,0.438,0.001,0.876c0,0.438,0.022,0.438,0.022,0.876c0,0.438-0.008,0.438-0.008,0.875
		c0,0.438,0.018,0.438,0.018,0.875c0,0.437-0.117,0.437-0.117,0.875c0,0.437,0.13,0.437,0.13,0.875c0,0.437-0.102,0.437-0.102,0.875
		c0,0.437,0.018,0.437,0.017,0.875c0,0.438,0.005,0.438,0.005,0.875c0,0.438,0.026,0.438,0.026,0.876c0,0.438-0.07,0.438-0.07,0.876
		c0,0.438,0.035,0.438,0.034,0.876c0,0.438,0.052,0.438,0.052,0.876c0,0.438-0.02,0.438-0.02,0.875c0,0.438,0.028,0.438,0.028,0.875
		c0,0.438,0.011,0.438,0.011,0.875c0,0.438,0.025,0.438,0.025,0.876c0,0.438-0.034,0.438-0.034,0.876
		c0,0.438,0.03,0.438,0.029,0.877c0,0.438-0.089,0.438-0.089,0.876c0,0.438,0.096,0.438,0.096,0.876
		c0,0.438-0.104,0.438-0.104,0.876c0,0.438,0.102,0.438,0.102,0.876c0,0.438-0.121,0.438-0.121,0.877
		c0,0.438,0.121,0.438,0.121,0.876c0,0.438-0.103,0.438-0.103,0.876c0,0.438-0.02,0.438-0.02,0.876c0,0.438,0.057,0.438,0.057,0.876
		c0,0.439-0.05,0.439-0.05,0.877c0,0.438,0.091,0.438,0.091,0.875c0,0.437-0.085,0.437-0.085,0.874c0,0.437-0.011,0.437-0.011,0.874
		c0,0.437,0.088,0.437,0.087,0.874c0,0.437-0.051,0.437-0.051,0.875c0,0.438,0.085,0.438,0.085,0.876
		c0,0.439-0.027,0.439-0.027,0.877c0,0.438-0.097,0.438-0.097,0.876c0,0.438,0.032,0.438,0.032,0.875
		c0,0.438,0.084,0.438,0.084,0.876c0,0.439-0.077,0.439-0.077,0.877c0,0.439-0.053,0.439-0.053,0.877
		c0,0.438,0.054,0.438,0.054,0.876c0,0.438,0.052,0.438,0.052,0.877c0,0.439,0.006,0.439,0.006,0.878
		c0,0.438-0.113,0.438-0.113,0.877c0,0.439,0.032,0.439,0.032,0.878c0,0.439,0.079,0.439,0.079,0.877
		c0,0.439-0.097,0.439-0.097,0.878c0,0.439,0.072,0.439,0.072,0.878c0,0.438,0.047,0.438,0.047,0.876
		c0,0.439-0.089,0.439-0.089,0.878c0,0.438-0.029,0.438-0.029,0.877c0,0.439,0.001,0.439,0.001,0.878c0,0.44,0,0.44,0,0.879
		c0,0.439,0.11,0.439,0.11,0.878c0,0.44-0.039,0.44-0.04,0.88c0,0.441-0.069,0.441-0.069,0.881c0,0.44-0.019,0.44-0.019,0.881
		c0,0.336,0.336,0.56,0.673,0.56c0.425,0,0.425,0.11,0.849,0.11c0.424,0,0.424-0.093,0.848-0.093c0.425,0,0.425-0.013,0.849-0.013
		c0.425,0,0.425,0.106,0.85,0.106c0.424,0,0.424-0.052,0.849-0.052c0.425,0,0.425,0.046,0.851,0.046
		c0.426,0,0.426-0.082,0.852-0.082c0.426,0,0.426,0.037,0.852,0.037c0.336,0,0.551-0.281,0.551-0.617
		c0-0.436,0.007-0.436,0.007-0.873c0-0.437,0.06-0.437,0.06-0.874c0-0.436,0.041-0.436,0.041-0.873c0-0.437-0.103-0.437-0.103-0.874
		c0-0.437,0.008-0.437,0.008-0.873c0-0.437,0.105-0.437,0.105-0.874c0-0.437-0.064-0.437-0.064-0.874
		c0-0.436,0.068-0.436,0.068-0.872c0-0.437-0.108-0.437-0.108-0.874c0-0.436-0.014-0.436-0.014-0.873
		c0-0.437,0.035-0.437,0.035-0.874c0-0.438,0.022-0.438,0.022-0.875c0-0.437-0.016-0.437-0.016-0.874
		c0-0.438,0.011-0.438,0.011-0.876c0-0.439-0.011-0.439-0.011-0.878c0-0.439-0.016-0.439-0.016-0.877
		c0-0.294,0.096-0.572,0.12-0.842c0.026-0.294,0.051-0.57,0.104-0.835c0.058-0.289,0.113-0.563,0.202-0.818
		c0.097-0.278,0.241-0.516,0.372-0.753c0.14-0.255,0.271-0.498,0.448-0.708c0.184-0.219,0.331-0.479,0.552-0.65
		c0.222-0.172,0.49-0.292,0.746-0.417c0.249-0.121,0.54-0.138,0.818-0.216c0.264-0.074,0.53-0.142,0.818-0.178
		c0.272-0.034,0.548-0.045,0.838-0.045c0.288,0,0.563,0.009,0.836,0.048c0.284,0.041,0.555,0.096,0.818,0.18
		c0.272,0.087,0.548,0.153,0.793,0.286c0.248,0.135,0.505,0.27,0.719,0.453c0.211,0.181,0.363,0.43,0.535,0.659
		c0.164,0.219,0.279,0.471,0.404,0.733c0.116,0.245,0.239,0.494,0.316,0.777c0.071,0.26,0.165,0.529,0.201,0.822
		c0.032,0.267-0.047,0.552-0.047,0.847c0,0.43,0.048,0.43,0.048,0.859c0,0.43-0.002,0.43-0.002,0.86c0,0.43-0.022,0.43-0.022,0.861
		c0,0.43,0.089,0.43,0.089,0.86c0,0.43-0.031,0.43-0.031,0.861c0,0.43-0.066,0.43-0.066,0.861c0,0.431-0.021,0.431-0.021,0.861
		c0,0.43,0.103,0.43,0.103,0.861c0,0.429-0.003,0.429-0.003,0.859c0,0.431,0,0.431,0,0.862c0,0.43,0.017,0.43,0.017,0.86
		c0,0.431-0.025,0.431-0.025,0.861c0,0.431-0.042,0.431-0.042,0.862c0,0.43,0.003,0.43,0.003,0.861c0,0.431,0.008,0.431,0.008,0.863
		c0,0.432-0.017,0.432-0.017,0.864s0.065,0.432,0.065,0.864c0,0.336,0.235,0.596,0.571,0.596c0.426,0,0.426,0.059,0.851,0.059
		c0.425,0,0.425-0.008,0.85-0.008c0.425,0,0.425-0.089,0.851-0.089c0.426,0,0.426,0.054,0.852,0.054c0.425,0,0.425,0.029,0.85,0.029
		c0.426,0,0.426-0.012,0.853-0.012c0.427,0,0.427-0.006,0.854-0.006c0.427,0,0.427-0.064,0.854-0.064
		c0.336,0,0.643-0.222,0.643-0.558c0-0.439-0.018-0.439-0.018-0.877c0-0.438,0.019-0.438,0.019-0.877c0-0.439-0.02-0.439-0.02-0.877
		c0-0.439,0.007-0.439,0.007-0.878c0-0.439,0.006-0.439,0.006-0.877C180.227,74.381,180.193,74.381,180.193,73.942z M200,48.677
		c0-0.434-0.023-0.434-0.023-0.868c0-0.434-0.001-0.434-0.001-0.868c0-0.433-0.012-0.433-0.012-0.866
		c0-0.432-0.013-0.432-0.013-0.864c0-0.433-0.056-0.433-0.056-0.866c0-0.432,0.077-0.432,0.077-0.864
		c0-0.432-0.068-0.432-0.068-0.864c0-0.336-0.215-0.609-0.551-0.609c-0.447,0-0.447,0.014-0.893,0.014s-0.447,0.005-0.893,0.005
		c-0.446,0-0.446,0.034-0.892,0.034c-0.445,0-0.445-0.033-0.89-0.033c-0.445,0-0.445-0.018-0.891-0.018
		c-0.445,0-0.445,0.024-0.89,0.024c-0.444,0-0.444-0.024-0.889-0.024c-0.445,0-0.445-0.028-0.89-0.028
		c-0.336,0-0.594-0.246-0.594-0.582c0-0.465-0.003-0.465-0.003-0.929c0-0.465-0.011-0.465-0.011-0.929
		c0-0.464,0.036-0.464,0.036-0.928c0-0.463-0.005-0.463-0.005-0.926c0-0.463-0.056-0.463-0.056-0.927
		c0-0.463,0.082-0.463,0.082-0.926c0-0.462,0.009-0.462,0.009-0.925c0-0.408-0.474-0.746-0.865-0.629
		c-0.427,0.128-0.427,0.126-0.854,0.254c-0.427,0.128-0.406,0.197-0.833,0.325c-0.426,0.128-0.42,0.148-0.846,0.276
		c-0.425,0.127-0.437,0.088-0.863,0.215c-0.426,0.127-0.415,0.163-0.841,0.29c-0.425,0.128-0.424,0.134-0.849,0.261
		c-0.425,0.127-0.442,0.07-0.867,0.197c-0.425,0.128-0.422,0.14-0.847,0.267c-0.258,0.077-0.475,0.316-0.475,0.585
		c0,0.446,0.076,0.446,0.076,0.891c0,0.446-0.034,0.446-0.034,0.891c0,0.445-0.065,0.445-0.065,0.89
		c0,0.444,0.037,0.444,0.037,0.887c0,0.444,0.067,0.444,0.067,0.889c0,0.336-0.313,0.564-0.649,0.564
		c-0.448,0-0.448-0.014-0.895-0.014c-0.448,0-0.448-0.011-0.895-0.011c-0.447,0-0.447,0.07-0.893,0.07
		c-0.446,0-0.446-0.049-0.892-0.049c-0.446,0-0.446,0.007-0.892,0.007c-0.446,0-0.446,0.024-0.892,0.024
		c-0.445,0-0.445,0.07-0.891,0.07c-0.446,0-0.446-0.09-0.892-0.09c-0.445,0-0.445,0.07-0.889,0.07c-0.445,0-0.445-0.03-0.891-0.03
		c-0.446,0-0.446-0.04-0.892-0.04c-0.445,0-0.445,0.019-0.891,0.019c-0.446,0-0.446,0.015-0.891,0.015
		c-0.445,0-0.445,0.064-0.89,0.064c-0.446,0-0.446-0.099-0.891-0.099c-0.445,0-0.445,0.072-0.89,0.072
		c-0.445,0-0.445,0.005-0.89,0.005c-0.445,0-0.445,0.034-0.891,0.034c-0.445,0-0.445-0.024-0.891-0.024
		c-0.336,0-0.675,0.226-0.675,0.562c0,0.434,0.022,0.434,0.022,0.868c0,0.434,0.012,0.434,0.012,0.868
		c0,0.433,0.087,0.433,0.087,0.866c0,0.432,0.016,0.432,0.016,0.864c0,0.433-0.022,0.433-0.022,0.865
		c0,0.432-0.078,0.432-0.078,0.865c0,0.432,0.047,0.432,0.047,0.863c0,0.336,0.254,0.622,0.591,0.622
		c0.448,0,0.448,0.042,0.895,0.042c0.448,0,0.448-0.009,0.895-0.009c0.447,0,0.447-0.11,0.893-0.11c0.446,0,0.446,0.049,0.891,0.049
		c0.446,0,0.446,0.045,0.893,0.045c0.446,0,0.446-0.025,0.892-0.025c0.445,0,0.445,0.027,0.89,0.027c0.446,0,0.446,0.01,0.892,0.01
		c0.444,0,0.444-0.068,0.889-0.068c0.446,0,0.446-0.027,0.891-0.027c0.446,0,0.446-0.006,0.892-0.006
		c0.445,0,0.445,0.004,0.891,0.004c0.446,0,0.446,0.065,0.892,0.065c0.445,0,0.445-0.019,0.89-0.019
		c0.446,0,0.446,0.031,0.891,0.031c0.445,0,0.445-0.015,0.89-0.015c0.445,0,0.445,0.025,0.89,0.025c0.445,0,0.445-0.072,0.891-0.072
		c0.445,0,0.445,0.007,0.891,0.007c0.336,0,0.637,0.304,0.637,0.641c0,0.444,0.007,0.444,0.007,0.889
		c0,0.444-0.092,0.444-0.092,0.889c0,0.443,0.109,0.443,0.109,0.887c0,0.443-0.065,0.443-0.065,0.885
		c0,0.443,0.008,0.443,0.008,0.886c0,0.443,0.022,0.443,0.022,0.885c0,0.442,0.027,0.442,0.027,0.884
		c0,0.443-0.001,0.443-0.001,0.886c0,0.441-0.114,0.441-0.114,0.883c0,0.442,0.115,0.442,0.115,0.885c0,0.443-0.01,0.443-0.01,0.885
		c0,0.442-0.091,0.442-0.091,0.885c0,0.443,0.116,0.443,0.116,0.885c0,0.442-0.025,0.442-0.025,0.884
		c0,0.443,0.012,0.443,0.012,0.885c0,0.442-0.069,0.442-0.069,0.884c0,0.442-0.025,0.442-0.025,0.883
		c0,0.442,0.046,0.442,0.046,0.884c0,0.442-0.067,0.442-0.067,0.884c0,0.442,0.004,0.442,0.004,0.883s0.023,0.441,0.023,0.882
		c0,0.442,0.092,0.442,0.092,0.883c0,0.442-0.057,0.442-0.057,0.884c0,0.3,0.077,0.59,0.087,0.876
		c0.011,0.3-0.083,0.598-0.061,0.882c0.023,0.298,0.132,0.58,0.169,0.861c0.039,0.297,0,0.6,0.055,0.879
		c0.058,0.294,0.172,0.569,0.249,0.842c0.081,0.289,0.22,0.548,0.323,0.813c0.108,0.278,0.153,0.578,0.287,0.831
		c0.139,0.262,0.385,0.449,0.552,0.684c0.17,0.238,0.35,0.455,0.552,0.666c0.201,0.209,0.387,0.427,0.62,0.608
		c0.226,0.176,0.455,0.352,0.713,0.502c0.246,0.143,0.517,0.245,0.793,0.365c0.26,0.112,0.529,0.214,0.817,0.305
		c0.269,0.086,0.536,0.211,0.831,0.279c0.276,0.063,0.558,0.149,0.857,0.197c0.28,0.045,0.581-0.003,0.882,0.028
		c0.283,0.029,0.57,0.109,0.871,0.126c0.285,0.016,0.579-0.021,0.88-0.016c0.285,0.005,0.576-0.015,0.876-0.02
		c0.285-0.005,0.581,0.106,0.881,0.093c0.285-0.013,0.572-0.12,0.871-0.141c0.285-0.019,0.575-0.06,0.873-0.086
		c0.313-0.028,0.604-0.246,0.604-0.56c0-0.435-0.084-0.435-0.084-0.871c0-0.435-0.014-0.435-0.014-0.871
		c0-0.435-0.008-0.435-0.008-0.869c0-0.434,0.034-0.434,0.034-0.867c0-0.434,0.099-0.434,0.099-0.868
		c0-0.434-0.037-0.434-0.037-0.868c0-0.433-0.081-0.433-0.081-0.866c0-0.346-0.243-0.609-0.589-0.593
		c-0.309,0.014-0.606-0.028-0.888-0.024c-0.312,0.005-0.61,0.111-0.887,0.099c-0.317-0.014-0.617-0.054-0.887-0.094
		c-0.32-0.047-0.589-0.198-0.841-0.29c-0.302-0.11-0.554-0.241-0.756-0.43c-0.212-0.197-0.411-0.419-0.509-0.719
		c-0.082-0.251-0.147-0.551-0.147-0.884c0-0.444,0.003-0.444,0.003-0.889c0-0.444,0.063-0.444,0.063-0.888
		c0-0.444-0.014-0.444-0.014-0.887c0-0.443-0.005-0.443-0.005-0.885c0-0.443-0.014-0.443-0.014-0.887
		c0-0.443,0.063-0.443,0.063-0.885c0-0.442-0.044-0.442-0.044-0.884c0-0.443,0.068-0.443,0.068-0.886
		c0-0.441-0.032-0.441-0.032-0.883c0-0.443,0.005-0.443,0.005-0.885c0-0.443-0.026-0.443-0.026-0.885
		c0-0.442,0.044-0.442,0.044-0.885c0-0.443-0.122-0.443-0.122-0.885c0-0.442,0.107-0.442,0.107-0.884
		c0-0.443-0.074-0.443-0.074-0.885c0-0.442,0.091-0.442,0.091-0.884c0-0.442-0.05-0.442-0.05-0.883c0-0.442,0.038-0.442,0.038-0.884
		s-0.047-0.442-0.047-0.884c0-0.441,0.075-0.441,0.075-0.883c0-0.441-0.119-0.441-0.119-0.883c0-0.441,0.116-0.441,0.116-0.883
		c0-0.442-0.117-0.442-0.117-0.884c0-0.336,0.322-0.574,0.658-0.574c0.447,0,0.447-0.014,0.893-0.026
		c0.446-0.012,0.446-0.027,0.893-0.027c0.446,0,0.446-0.005,0.891-0.005c0.445,0,0.445-0.018,0.89-0.018
		c0.445,0,0.445,0.101,0.891,0.101c0.445,0,0.445-0.131,0.89-0.131c0.444,0,0.444,0.117,0.889,0.117c0.445,0,0.445-0.018,0.89-0.018
		C199.691,49.315,200,49.013,200,48.677z M57.715,19.312c0-0.44-0.11-0.44-0.11-0.878c0-0.442-0.009-0.442-0.009-0.882
		s0.042-0.44,0.042-0.88c0-0.441,0.031-0.441,0.031-0.881c0-0.441-0.047-0.441-0.047-0.883c0-0.44,0.078-0.44,0.078-0.881
		c0-0.442,0.022-0.442,0.022-0.883c0-0.442-0.016-0.442-0.016-0.884c0-0.443-0.087-0.443-0.087-0.885
		c0-0.335-0.24-0.564-0.576-0.564c-0.425,0-0.425,0.022-0.851,0.022c-0.425,0-0.425-0.113-0.85-0.113
		c-0.425,0-0.425-0.024-0.851-0.024c-0.426,0-0.426,0.034-0.852,0.034c-0.425,0-0.425,0.005-0.851,0.005
		c-0.426,0-0.426,0.072-0.853,0.072c-0.427,0-0.427-0.099-0.854-0.099c-0.427,0-0.427,0.064-0.854,0.064
		c-0.336,0-0.573,0.268-0.573,0.603c0,0.226-0.084,0.226-0.084,0.453c0,0.262-0.075,0.523-0.278,0.614
		c-0.201,0.09-0.45-0.025-0.649-0.192c-0.211-0.178-0.503-0.251-0.732-0.409c-0.226-0.156-0.419-0.364-0.663-0.502
		c-0.238-0.134-0.505-0.216-0.761-0.331c-0.249-0.112-0.489-0.25-0.754-0.343c-0.257-0.09-0.534-0.123-0.807-0.195
		c-0.263-0.069-0.512-0.219-0.791-0.271c-0.266-0.05-0.551-0.019-0.832-0.052c-0.27-0.032-0.538-0.163-0.822-0.179
		c-0.272-0.016-0.553,0.099-0.837,0.099c-0.296,0-0.589-0.033-0.88-0.011c-0.295,0.022-0.582,0.08-0.871,0.124
		c-0.292,0.044-0.579,0.093-0.864,0.159c-0.287,0.066-0.56,0.171-0.84,0.258c-0.281,0.086-0.579,0.119-0.852,0.226
		c-0.274,0.107-0.524,0.264-0.789,0.391c-0.265,0.127-0.554,0.207-0.809,0.353c-0.255,0.145-0.499,0.312-0.743,0.476
		c-0.244,0.163-0.48,0.339-0.712,0.519c-0.232,0.179-0.448,0.378-0.668,0.574c-0.219,0.195-0.476,0.352-0.683,0.563
		c-0.205,0.209-0.409,0.426-0.601,0.65c-0.191,0.222-0.361,0.466-0.538,0.701c-0.176,0.234-0.305,0.502-0.467,0.749
		c-0.161,0.245-0.304,0.5-0.451,0.756c-0.145,0.253-0.36,0.473-0.49,0.738c-0.13,0.263-0.266,0.527-0.381,0.799
		c-0.113,0.27-0.117,0.585-0.215,0.863c-0.097,0.275-0.236,0.539-0.318,0.824c-0.082,0.281-0.189,0.558-0.255,0.847
		c-0.065,0.285-0.044,0.59-0.093,0.882c-0.049,0.288-0.052,0.581-0.084,0.876c-0.032,0.29-0.154,0.574-0.171,0.871
		c-0.016,0.291-0.058,0.587-0.058,0.885c0,0.298,0.016,0.595,0.032,0.886c0.016,0.297,0.055,0.592,0.087,0.882
		c0.033,0.294,0.157,0.575,0.206,0.863c0.049,0.292,0.016,0.599,0.081,0.883c0.066,0.289,0.157,0.571,0.239,0.852
		c0.082,0.285,0.258,0.536,0.355,0.811c0.098,0.28,0.093,0.597,0.206,0.866c0.115,0.272,0.256,0.534,0.385,0.797
		c0.131,0.265,0.311,0.502,0.457,0.757c0.147,0.255,0.252,0.537,0.414,0.781c0.162,0.246,0.402,0.437,0.579,0.671
		c0.178,0.236,0.337,0.482,0.528,0.704c0.193,0.224,0.355,0.475,0.56,0.684c0.207,0.21,0.421,0.416,0.64,0.611
		c0.22,0.196,0.467,0.362,0.699,0.541c0.233,0.18,0.462,0.368,0.706,0.531c0.244,0.163,0.478,0.352,0.733,0.497
		c0.255,0.146,0.52,0.285,0.785,0.412c0.265,0.126,0.58,0.142,0.854,0.249c0.273,0.106,0.523,0.282,0.804,0.369
		c0.28,0.086,0.578,0.114,0.865,0.18c0.285,0.065,0.581,0.071,0.872,0.115c0.289,0.043,0.57,0.163,0.865,0.185
		c0.291,0.021,0.587-0.047,0.883-0.047c0.284,0,0.565,0.102,0.837,0.086c0.283-0.016,0.555-0.112,0.825-0.144
		c0.281-0.033,0.565-0.018,0.832-0.069c0.278-0.052,0.528-0.202,0.792-0.272c0.273-0.072,0.527-0.176,0.785-0.266
		c0.265-0.093,0.516-0.198,0.765-0.31c0.256-0.115,0.53-0.18,0.769-0.314c0.244-0.138,0.452-0.322,0.678-0.478
		c0.229-0.159,0.462-0.305,0.673-0.482c0.199-0.167,0.446-0.124,0.647-0.034c0.202,0.091,0.34,0.248,0.34,0.51
		c0,0.228-0.025,0.228-0.025,0.456c0,0.335,0.329,0.549,0.665,0.549c0.426,0,0.426,0.091,0.851,0.091c0.425,0,0.425,0.01,0.85,0.01
		c0.425,0,0.425-0.115,0.851-0.115c0.426,0,0.426,0.114,0.852,0.114c0.425,0,0.425,0.001,0.851,0.001
		c0.426,0,0.426-0.027,0.853-0.027c0.427,0,0.427-0.022,0.854-0.022s0.427-0.008,0.854-0.008c0.336,0,0.66-0.259,0.66-0.595
		c0-0.44-0.109-0.44-0.109-0.878c0-0.44,0.092-0.44,0.092-0.878c0-0.439-0.008-0.439-0.008-0.878c0-0.439,0.004-0.439,0.004-0.877
		c0-0.44,0.007-0.44,0.007-0.878c0-0.44-0.072-0.44-0.072-0.88c0-0.44,0.025-0.44,0.025-0.88c0-0.439-0.015-0.439-0.015-0.879
		c0-0.439,0.031-0.439,0.031-0.878c0-0.44-0.019-0.44-0.019-0.879c0-0.44,0.065-0.44,0.065-0.88c0-0.44,0.004-0.44,0.004-0.88
		s-0.006-0.44-0.006-0.88c0-0.44-0.027-0.44-0.027-0.88s-0.067-0.44-0.067-0.881c0-0.44,0.009-0.44,0.009-0.88
		c0-0.441,0.027-0.441,0.027-0.881s-0.025-0.44-0.025-0.88c0-0.441,0.046-0.441,0.046-0.881
		C57.666,19.752,57.715,19.752,57.715,19.312z M49.528,24.987c-0.029,0.291-0.059,0.57-0.117,0.842
		c-0.061,0.285-0.058,0.582-0.15,0.845c-0.096,0.275-0.293,0.5-0.42,0.749c-0.131,0.257-0.262,0.505-0.425,0.734
		c-0.166,0.234-0.279,0.514-0.476,0.718c-0.198,0.205-0.49,0.306-0.717,0.478c-0.225,0.172-0.447,0.34-0.698,0.478
		c-0.247,0.136-0.484,0.297-0.753,0.4c-0.262,0.1-0.549,0.127-0.831,0.193c-0.272,0.064-0.538,0.197-0.826,0.229
		c-0.277,0.031-0.566,0.045-0.857,0.045c-0.291,0-0.571-0.099-0.848-0.13c-0.289-0.032-0.591,0.035-0.863-0.029
		c-0.282-0.067-0.522-0.26-0.784-0.36c-0.27-0.103-0.58-0.115-0.827-0.251c-0.251-0.139-0.453-0.36-0.679-0.532
		c-0.226-0.173-0.473-0.33-0.671-0.535c-0.196-0.204-0.351-0.451-0.517-0.685c-0.163-0.229-0.355-0.451-0.487-0.708
		c-0.127-0.25-0.156-0.549-0.252-0.822c-0.092-0.263-0.24-0.517-0.302-0.803c-0.059-0.272,0.003-0.568-0.026-0.858
		c-0.028-0.277-0.164-0.555-0.164-0.847c0-0.293,0.058-0.579,0.086-0.855c0.029-0.291,0.048-0.58,0.107-0.851
		c0.061-0.285,0.144-0.562,0.236-0.825c0.096-0.274,0.181-0.554,0.309-0.803c0.131-0.258,0.339-0.47,0.501-0.699
		c0.166-0.234,0.316-0.484,0.512-0.688c0.198-0.205,0.453-0.349,0.68-0.522c0.225-0.173,0.455-0.338,0.706-0.476
		c0.247-0.136,0.502-0.26,0.772-0.362c0.262-0.1,0.531-0.197,0.812-0.263c0.272-0.064,0.561-0.05,0.85-0.082
		c0.277-0.03,0.556-0.043,0.847-0.043c0.291,0,0.572-0.006,0.85,0.025c0.289,0.032,0.577,0.03,0.849,0.095
		c0.282,0.067,0.561,0.139,0.823,0.239c0.27,0.103,0.49,0.299,0.737,0.435c0.251,0.139,0.474,0.301,0.699,0.473
		c0.227,0.173,0.51,0.279,0.708,0.484c0.196,0.204,0.339,0.458,0.506,0.692c0.163,0.229,0.279,0.487,0.411,0.744
		c0.127,0.249,0.313,0.478,0.409,0.752c0.092,0.263,0.207,0.534,0.268,0.818c0.059,0.272,0.006,0.571,0.035,0.862
		c0.028,0.276,0.008,0.558,0.008,0.851C49.561,24.431,49.555,24.71,49.528,24.987z M134.078,19.312c0-0.44-0.11-0.44-0.11-0.878
		c0-0.442-0.009-0.442-0.009-0.882s0.042-0.44,0.042-0.88c0-0.441,0.031-0.441,0.031-0.882s-0.047-0.441-0.047-0.882
		c0-0.441,0.078-0.441,0.078-0.881c0-0.442,0.022-0.442,0.022-0.883c0-0.442-0.016-0.442-0.016-0.885s-0.087-0.442-0.087-0.885
		c0-0.336-0.241-0.565-0.577-0.565c-0.425,0-0.425,0.023-0.85,0.023c-0.424,0-0.424-0.113-0.849-0.113
		c-0.425,0-0.425-0.023-0.85-0.023c-0.426,0-0.426,0.034-0.851,0.034c-0.425,0-0.425,0.005-0.85,0.005
		c-0.426,0-0.426,0.072-0.852,0.072c-0.426,0-0.426-0.099-0.853-0.099c-0.427,0-0.427,0.064-0.853,0.064
		c-0.336,0-0.574,0.268-0.574,0.604c0,0.228-0.084,0.228-0.084,0.456c0,0.262-0.076,0.523-0.278,0.614
		c-0.201,0.091-0.45-0.025-0.649-0.193c-0.211-0.177-0.502-0.251-0.732-0.409c-0.226-0.156-0.418-0.364-0.662-0.502
		c-0.239-0.134-0.505-0.216-0.761-0.331c-0.248-0.112-0.489-0.25-0.754-0.343c-0.257-0.091-0.534-0.123-0.806-0.195
		c-0.263-0.069-0.512-0.219-0.79-0.271c-0.266-0.05-0.551-0.018-0.831-0.052c-0.27-0.032-0.538-0.163-0.821-0.179
		c-0.272-0.015-0.553,0.099-0.837,0.099c-0.296,0-0.589-0.033-0.881-0.011c-0.295,0.022-0.583,0.081-0.872,0.124
		c-0.292,0.044-0.579,0.093-0.865,0.159c-0.288,0.066-0.56,0.171-0.841,0.258c-0.282,0.086-0.58,0.119-0.853,0.226
		c-0.274,0.108-0.525,0.264-0.79,0.391c-0.265,0.127-0.555,0.207-0.81,0.352c-0.255,0.145-0.499,0.312-0.744,0.476
		c-0.244,0.163-0.48,0.339-0.713,0.519c-0.232,0.179-0.449,0.378-0.67,0.573c-0.219,0.195-0.477,0.353-0.684,0.563
		c-0.206,0.209-0.409,0.426-0.602,0.649c-0.191,0.222-0.361,0.466-0.539,0.702c-0.177,0.234-0.306,0.502-0.468,0.749
		c-0.161,0.245-0.305,0.5-0.452,0.756c-0.146,0.254-0.36,0.473-0.492,0.739c-0.13,0.262-0.267,0.527-0.382,0.799
		c-0.114,0.27-0.118,0.585-0.216,0.863c-0.097,0.275-0.236,0.539-0.318,0.823c-0.081,0.28-0.187,0.559-0.252,0.848
		c-0.065,0.285-0.042,0.59-0.091,0.882c-0.048,0.287-0.051,0.581-0.084,0.875c-0.032,0.29-0.154,0.575-0.17,0.871
		c-0.016,0.292-0.058,0.587-0.058,0.885c0,0.297,0.016,0.594,0.032,0.885c0.016,0.296,0.055,0.591,0.086,0.881
		c0.032,0.294,0.156,0.575,0.204,0.863c0.049,0.292,0.015,0.599,0.079,0.884c0.065,0.289,0.156,0.572,0.237,0.853
		c0.082,0.285,0.258,0.536,0.356,0.812c0.098,0.279,0.093,0.597,0.207,0.866c0.115,0.272,0.257,0.534,0.387,0.796
		c0.131,0.265,0.312,0.502,0.457,0.757c0.147,0.256,0.253,0.538,0.415,0.782c0.163,0.246,0.403,0.437,0.58,0.67
		c0.178,0.236,0.338,0.483,0.53,0.704c0.193,0.224,0.356,0.475,0.562,0.684c0.207,0.21,0.422,0.415,0.641,0.611
		c0.221,0.195,0.468,0.361,0.7,0.541c0.233,0.18,0.463,0.368,0.707,0.531c0.245,0.163,0.479,0.352,0.734,0.497
		c0.256,0.145,0.521,0.285,0.786,0.41c0.265,0.127,0.58,0.142,0.854,0.249c0.273,0.106,0.524,0.282,0.805,0.369
		c0.28,0.086,0.578,0.114,0.866,0.18c0.285,0.065,0.581,0.071,0.873,0.115c0.289,0.043,0.571,0.163,0.866,0.185
		c0.291,0.021,0.588-0.047,0.884-0.047c0.284,0,0.565,0.102,0.836,0.087c0.283-0.016,0.554-0.112,0.824-0.144
		c0.281-0.033,0.565-0.018,0.832-0.068c0.278-0.052,0.528-0.203,0.791-0.272c0.273-0.071,0.527-0.175,0.784-0.265
		c0.265-0.093,0.515-0.198,0.764-0.31c0.256-0.115,0.53-0.179,0.768-0.314c0.243-0.137,0.452-0.321,0.677-0.478
		c0.229-0.158,0.461-0.304,0.672-0.481c0.199-0.168,0.447-0.125,0.649-0.035c0.203,0.091,0.341,0.248,0.341,0.51
		c0,0.228-0.024,0.228-0.024,0.456c0,0.336,0.33,0.551,0.666,0.551c0.425,0,0.425,0.091,0.85,0.091c0.424,0,0.424,0.009,0.848,0.009
		c0.425,0,0.425-0.115,0.85-0.115c0.425,0,0.425,0.115,0.851,0.115c0.425,0,0.425,0.001,0.849,0.001
		c0.426,0,0.426-0.027,0.851-0.027c0.427,0,0.427-0.022,0.853-0.022s0.426-0.008,0.853-0.008c0.336,0,0.661-0.259,0.661-0.595
		c0-0.44-0.109-0.44-0.109-0.878c0-0.44,0.092-0.44,0.092-0.878c0-0.439-0.008-0.439-0.008-0.878c0-0.439,0.004-0.439,0.004-0.878
		c0-0.439,0.007-0.439,0.007-0.878s-0.072-0.44-0.072-0.879c0-0.44,0.025-0.44,0.025-0.88c0-0.44-0.015-0.44-0.015-0.879
		s0.031-0.44,0.031-0.879c0-0.439-0.019-0.439-0.019-0.878c0-0.44,0.065-0.44,0.065-0.88s0.004-0.44,0.004-0.88
		c0-0.44-0.006-0.44-0.006-0.88c0-0.44-0.027-0.44-0.027-0.88c0-0.441-0.067-0.441-0.067-0.881s0.009-0.44,0.009-0.88
		s0.027-0.44,0.027-0.881c0-0.44-0.025-0.44-0.025-0.88c0-0.441,0.046-0.441,0.046-0.881
		C134.029,19.752,134.078,19.752,134.078,19.312z M125.894,24.987c-0.029,0.291-0.059,0.57-0.117,0.842
		c-0.061,0.285-0.058,0.582-0.15,0.845c-0.096,0.275-0.293,0.5-0.42,0.749c-0.131,0.257-0.262,0.505-0.424,0.734
		c-0.166,0.234-0.28,0.514-0.476,0.718c-0.198,0.205-0.49,0.306-0.717,0.478c-0.225,0.172-0.447,0.34-0.698,0.478
		c-0.247,0.136-0.484,0.297-0.753,0.4c-0.262,0.1-0.549,0.127-0.831,0.193c-0.272,0.064-0.538,0.197-0.826,0.229
		c-0.278,0.031-0.566,0.045-0.857,0.045c-0.291,0-0.57-0.099-0.848-0.13c-0.289-0.032-0.591,0.035-0.863-0.029
		c-0.282-0.067-0.522-0.26-0.785-0.36c-0.27-0.103-0.58-0.115-0.826-0.251c-0.251-0.139-0.453-0.36-0.679-0.532
		c-0.226-0.173-0.473-0.33-0.671-0.535c-0.196-0.204-0.351-0.451-0.517-0.685c-0.163-0.229-0.355-0.451-0.487-0.708
		c-0.127-0.25-0.156-0.549-0.252-0.822c-0.092-0.263-0.24-0.517-0.302-0.803c-0.059-0.272,0.003-0.568-0.026-0.858
		c-0.028-0.277-0.164-0.555-0.164-0.847c0-0.293,0.058-0.579,0.086-0.855c0.029-0.291,0.048-0.58,0.107-0.851
		c0.061-0.285,0.144-0.562,0.236-0.825c0.096-0.274,0.182-0.554,0.309-0.803c0.131-0.258,0.339-0.47,0.502-0.699
		c0.166-0.234,0.316-0.484,0.512-0.688c0.198-0.205,0.453-0.349,0.68-0.522c0.225-0.173,0.455-0.338,0.706-0.476
		c0.247-0.136,0.502-0.26,0.772-0.362c0.262-0.1,0.531-0.197,0.813-0.263c0.272-0.064,0.561-0.05,0.85-0.082
		c0.278-0.03,0.556-0.043,0.847-0.043c0.291,0,0.572-0.006,0.85,0.025c0.289,0.032,0.577,0.03,0.85,0.095
		c0.282,0.067,0.561,0.139,0.823,0.239c0.27,0.103,0.491,0.299,0.738,0.435c0.251,0.139,0.474,0.301,0.699,0.473
		c0.226,0.173,0.51,0.279,0.708,0.484c0.196,0.204,0.34,0.458,0.506,0.692c0.163,0.229,0.279,0.487,0.411,0.744
		c0.127,0.249,0.313,0.478,0.409,0.752c0.092,0.263,0.207,0.534,0.268,0.818c0.059,0.272,0.006,0.571,0.035,0.862
		c0.028,0.276,0.008,0.558,0.008,0.851C125.928,24.431,125.922,24.71,125.894,24.987z M40.143,78.988
		c-0.155-0.456-0.178-0.447-0.333-0.903c-0.155-0.455-0.165-0.452-0.32-0.907c-0.154-0.454-0.181-0.445-0.336-0.9
		c-0.154-0.454-0.135-0.46-0.29-0.914c-0.143-0.42-0.192-0.403-0.335-0.823c-0.143-0.42-0.176-0.409-0.318-0.829
		c-0.143-0.419-0.076-0.442-0.219-0.861c-0.142-0.418-0.168-0.41-0.31-0.829c-0.142-0.419-0.147-0.418-0.289-0.837
		c-0.142-0.418-0.159-0.413-0.301-0.831c-0.142-0.418-0.046-0.451-0.188-0.868c-0.142-0.419-0.266-0.377-0.408-0.796
		c-0.142-0.418-0.031-0.455-0.173-0.872c-0.142-0.418-0.16-0.413-0.302-0.831c-0.142-0.418-0.135-0.421-0.278-0.839
		c-0.142-0.418-0.163-0.411-0.305-0.829c-0.142-0.419-0.143-0.418-0.285-0.837c-0.142-0.418-0.153-0.415-0.295-0.832
		c-0.142-0.418-0.155-0.414-0.297-0.832c-0.142-0.418-0.195-0.4-0.337-0.817c-0.142-0.418-0.069-0.443-0.21-0.861
		c-0.142-0.418-0.206-0.396-0.349-0.814c-0.142-0.418-0.087-0.437-0.229-0.855c-0.142-0.418-0.156-0.413-0.298-0.83
		c-0.142-0.417-0.146-0.415-0.288-0.832c-0.142-0.418-0.174-0.406-0.316-0.824c-0.142-0.418-0.11-0.429-0.252-0.847
		c-0.142-0.418-0.125-0.423-0.267-0.841c-0.142-0.417-0.164-0.41-0.306-0.826c-0.141-0.417-0.119-0.425-0.261-0.842
		c-0.142-0.417-0.116-0.425-0.257-0.842c-0.142-0.416-0.153-0.413-0.295-0.829c-0.142-0.417-0.144-0.416-0.286-0.834
		c-0.142-0.418-0.152-0.414-0.294-0.832c-0.142-0.418-0.108-0.429-0.25-0.846c-0.142-0.418-0.146-0.416-0.288-0.834
		c-0.142-0.418-0.196-0.399-0.337-0.817c-0.142-0.418-0.064-0.444-0.206-0.862c-0.142-0.418-0.133-0.421-0.275-0.839
		c-0.142-0.418-0.161-0.411-0.303-0.829c-0.142-0.417-0.14-0.418-0.282-0.835s-0.211-0.394-0.352-0.811
		c-0.142-0.418-0.162-0.411-0.304-0.828c-0.084-0.247-0.274-0.425-0.535-0.425c-0.458,0-0.458,0.037-0.916,0.037
		c-0.459,0-0.459,0.006-0.917,0.006c-0.457,0-0.457-0.06-0.915-0.06c-0.456,0-0.456,0.013-0.913,0.013
		c-0.457,0-0.457-0.039-0.914-0.039c-0.457,0-0.457,0.076-0.913,0.076c-0.456,0-0.456-0.034-0.912-0.034
		c-0.457,0-0.457-0.064-0.914-0.064c-0.455,0-0.455,0.036-0.91,0.036c-0.456,0-0.456,0.068-0.913,0.068
		c-0.457,0-0.457-0.085-0.913-0.085c-0.261,0-0.548,0.192-0.632,0.439c-0.141,0.413-0.151,0.41-0.292,0.824
		c-0.14,0.414-0.074,0.437-0.215,0.851c-0.14,0.413-0.187,0.397-0.328,0.81c-0.14,0.413-0.134,0.415-0.274,0.827
		c-0.14,0.413-0.118,0.42-0.258,0.834c-0.14,0.412-0.074,0.435-0.214,0.847c-0.14,0.412-0.225,0.383-0.365,0.795
		c-0.14,0.413-0.073,0.435-0.214,0.848c-0.14,0.411-0.168,0.401-0.308,0.812c-0.14,0.413-0.178,0.399-0.318,0.812
		c-0.14,0.412-0.122,0.418-0.262,0.831c-0.14,0.412-0.126,0.417-0.266,0.829c-0.14,0.412-0.08,0.432-0.22,0.845
		c-0.14,0.411-0.234,0.38-0.374,0.792c-0.14,0.412-0.071,0.435-0.212,0.848c-0.14,0.411-0.136,0.413-0.276,0.825
		c-0.14,0.412-0.108,0.423-0.247,0.834c-0.14,0.413-0.163,0.404-0.303,0.816c-0.14,0.412-0.247,0.376-0.387,0.788
		c-0.14,0.411-0.119,0.418-0.259,0.83c-0.14,0.41-0.128,0.415-0.268,0.825c-0.14,0.412-0.058,0.44-0.198,0.851
		c-0.14,0.412-0.125,0.418-0.265,0.829c-0.14,0.411-0.16,0.404-0.3,0.816c-0.14,0.41-0.213,0.386-0.353,0.796
		c-0.14,0.41-0.095,0.426-0.235,0.837c-0.14,0.41-0.169,0.401-0.308,0.811c-0.14,0.41-0.179,0.397-0.319,0.808
		c-0.14,0.411-0.131,0.414-0.271,0.825c-0.14,0.412-0.036,0.447-0.176,0.859c-0.14,0.411-0.186,0.396-0.327,0.807
		c-0.14,0.412-0.183,0.397-0.323,0.808c-0.14,0.412-0.116,0.42-0.256,0.832c-0.14,0.411-0.165,0.403-0.305,0.814
		c-0.14,0.412-0.149,0.409-0.289,0.821c-0.14,0.411-0.076,0.433-0.216,0.844c-0.14,0.411-0.114,0.42-0.254,0.831
		c-0.14,0.411-0.134,0.413-0.274,0.825c-0.14,0.412-0.144,0.41-0.284,0.822c-0.14,0.411-0.202,0.391-0.342,0.802
		c-0.14,0.412-0.122,0.418-0.262,0.829c-0.14,0.411-0.169,0.401-0.309,0.813c-0.14,0.41-0.126,0.415-0.265,0.827
		C4.373,78.597,4.35,78.589,4.21,79c-0.134,0.395,0.19,0.776,0.607,0.776c0.45,0,0.45,0.007,0.9,0.007c0.45,0,0.45,0.004,0.9,0.004
		c0.449,0,0.449-0.007,0.898-0.007c0.448,0,0.448,0.092,0.896,0.092c0.449,0,0.449-0.109,0.898-0.109
		c0.448,0,0.448,0.065,0.896,0.065c0.448,0,0.448-0.008,0.896-0.008c0.448,0,0.448-0.022,0.897-0.022
		c0.447,0,0.447-0.027,0.894-0.027c0.265,0,0.46-0.142,0.54-0.394c0.133-0.42,0.242-0.386,0.375-0.805
		c0.133-0.42,0.024-0.455,0.157-0.875c0.133-0.419,0.142-0.416,0.275-0.836c0.133-0.418,0.219-0.391,0.352-0.809
		c0.133-0.42,0.023-0.454,0.156-0.873c0.133-0.419,0.156-0.411,0.289-0.83c0.08-0.253,0.346-0.459,0.611-0.459
		c0.435,0,0.435,0.069,0.871,0.069c0.435,0,0.435,0.025,0.871,0.025c0.435,0,0.435-0.045,0.87-0.045
		c0.434,0,0.434,0.067,0.868,0.067c0.434,0,0.434-0.004,0.869-0.004c0.434,0,0.434-0.023,0.868-0.023
		c0.433,0,0.433-0.092,0.867-0.092c0.434,0,0.434,0.057,0.868,0.057c0.433,0,0.433-0.071,0.865-0.071c0.434,0,0.434,0.11,0.868,0.11
		c0.434,0,0.434-0.079,0.868-0.079s0.434,0.087,0.867,0.087c0.434,0,0.434-0.049,0.868-0.049c0.433,0,0.433-0.05,0.867-0.05
		c0.434,0,0.434,0.084,0.868,0.084c0.265,0,0.569,0.111,0.65,0.364c0.133,0.42,0.133,0.42,0.266,0.841
		c0.133,0.42,0.097,0.431,0.231,0.851c0.133,0.42,0.115,0.425,0.248,0.844c0.133,0.419,0.161,0.41,0.294,0.828
		c0.133,0.419,0.132,0.42,0.265,0.839c0.133,0.418,0.084,0.434,0.217,0.853c0.08,0.253,0.32,0.459,0.586,0.459
		c0.45,0,0.45-0.086,0.9-0.086c0.45,0,0.45,0.057,0.9,0.057c0.449,0,0.449-0.047,0.898-0.047c0.448,0,0.448-0.02,0.896-0.02
		c0.449,0,0.449,0.12,0.897,0.12c0.448,0,0.448-0.091,0.897-0.091c0.448,0,0.448-0.018,0.895-0.018c0.449,0,0.449,0.093,0.897,0.093
		c0.447,0,0.447-0.084,0.894-0.084C39.917,79.775,40.277,79.383,40.143,78.988z M25.719,65.957c-0.445,0-0.445,0.008-0.891,0.008
		c-0.445,0-0.445-0.034-0.89-0.034c-0.444,0-0.444-0.099-0.889-0.099c-0.443,0-0.443,0.038-0.887,0.038
		c-0.444,0-0.444,0.081-0.888,0.081c-0.444,0-0.444-0.033-0.887-0.033c-0.443,0-0.443-0.052-0.886-0.052
		c-0.444,0-0.444,0.11-0.888,0.11c-0.412,0-0.76-0.491-0.634-0.883c0.137-0.43,0.219-0.403,0.356-0.833
		c0.137-0.43,0.126-0.433,0.263-0.863c0.137-0.429,0.089-0.444,0.226-0.873c0.136-0.427,0.116-0.434,0.252-0.862
		c0.137-0.428,0.14-0.427,0.276-0.856c0.137-0.428,0.196-0.409,0.333-0.837c0.136-0.427,0.123-0.432,0.259-0.86
		c0.137-0.427,0.131-0.43,0.268-0.858c0.136-0.426,0.123-0.43,0.259-0.857c0.136-0.427,0.196-0.408,0.333-0.837
		c0.137-0.427,0.094-0.441,0.231-0.869c0.136-0.427,0.201-0.407,0.337-0.834c0.137-0.428,0.106-0.437,0.243-0.866
		c0.09-0.282,0.305-0.398,0.55-0.398c0.245,0,0.481,0.109,0.571,0.391c0.137,0.43,0.095,0.443,0.232,0.873
		c0.137,0.43,0.253,0.392,0.39,0.822c0.137,0.429,0.035,0.461,0.172,0.89c0.136,0.427,0.207,0.406,0.343,0.833
		c0.137,0.428,0.05,0.456,0.187,0.885c0.136,0.428,0.184,0.413,0.321,0.841c0.136,0.427,0.1,0.439,0.236,0.866
		c0.137,0.428,0.182,0.413,0.318,0.842c0.136,0.427,0.065,0.449,0.201,0.876c0.137,0.427,0.25,0.391,0.387,0.82
		c0.137,0.427,0.026,0.463,0.163,0.89c0.136,0.428,0.248,0.392,0.385,0.82c0.136,0.428,0.056,0.454,0.193,0.881
		C26.391,65.512,26.131,65.957,25.719,65.957z M78.342,65.563c-0.016-0.297,0.062-0.599,0.031-0.89
		c-0.032-0.294-0.193-0.57-0.24-0.858c-0.049-0.292,0.014-0.605-0.051-0.89c-0.065-0.289-0.237-0.549-0.318-0.83
		c-0.082-0.285-0.073-0.597-0.17-0.873c-0.098-0.279-0.295-0.52-0.408-0.79c-0.115-0.272-0.157-0.578-0.287-0.841
		c-0.131-0.265-0.297-0.513-0.443-0.767c-0.147-0.256-0.274-0.527-0.435-0.771c-0.163-0.246-0.355-0.475-0.532-0.708
		c-0.178-0.236-0.373-0.459-0.564-0.682c-0.193-0.224-0.414-0.422-0.619-0.631c-0.207-0.21-0.407-0.427-0.627-0.622
		c-0.221-0.196-0.48-0.344-0.712-0.523c-0.233-0.18-0.49-0.322-0.734-0.485c-0.245-0.163-0.457-0.377-0.713-0.522
		c-0.256-0.146-0.529-0.258-0.794-0.385c-0.265-0.127-0.536-0.239-0.81-0.345c-0.274-0.107-0.555-0.186-0.837-0.273
		c-0.28-0.086-0.539-0.26-0.827-0.326c-0.286-0.064-0.599,0.009-0.891-0.035c-0.289-0.043-0.568-0.192-0.863-0.214
		c-0.292-0.021-0.589-0.014-0.886-0.014c-0.283,0-0.562,0.001-0.834,0.016c-0.283,0.016-0.558,0.062-0.828,0.095
		c-0.28,0.033-0.554,0.076-0.82,0.127c-0.277,0.052-0.545,0.125-0.808,0.195c-0.272,0.072-0.532,0.166-0.788,0.257
		c-0.265,0.093-0.497,0.247-0.745,0.359c-0.255,0.115-0.535,0.17-0.773,0.304c-0.243,0.137-0.44,0.34-0.666,0.496
		c-0.229,0.158-0.482,0.277-0.693,0.455c-0.199,0.167-0.455,0.196-0.657,0.105c-0.202-0.091-0.368-0.302-0.368-0.563
		c0-0.44-0.034-0.44-0.034-0.879s0.033-0.44,0.033-0.879c0-0.439,0.018-0.439,0.018-0.878c0-0.438-0.024-0.438-0.024-0.875
		c0-0.439,0.024-0.439,0.024-0.877s0.028-0.438,0.028-0.876c0-0.437-0.012-0.437-0.012-0.875c0-0.438-0.003-0.438-0.003-0.875
		c0-0.437-0.011-0.437-0.011-0.873c0-0.438,0.036-0.438,0.036-0.875c0-0.438-0.005-0.438-0.005-0.876
		c0-0.437-0.057-0.437-0.057-0.875c0-0.438,0.082-0.438,0.082-0.875c0-0.437,0.01-0.437,0.01-0.875c0-0.437-0.02-0.437-0.02-0.875
		c0-0.336-0.321-0.658-0.657-0.658c-0.427,0-0.427,0.072-0.854,0.072c-0.427,0-0.427,0.021-0.854,0.021
		c-0.426,0-0.426-0.041-0.853-0.041c-0.425,0-0.425,0.036-0.85,0.036c-0.426,0-0.426,0.006-0.852,0.006
		c-0.425,0-0.425-0.06-0.851-0.06c-0.425,0-0.425,0.013-0.849,0.013c-0.425,0-0.425-0.039-0.851-0.039
		c-0.336,0-0.574,0.314-0.574,0.65c0,0.437-0.034,0.437-0.034,0.873s-0.065,0.437-0.065,0.873c0,0.436,0.037,0.436,0.037,0.872
		c0,0.435,0.067,0.435,0.067,0.87s-0.084,0.435-0.084,0.871s-0.014,0.435-0.014,0.87s-0.011,0.435-0.011,0.869
		c0,0.435,0.07,0.435,0.07,0.87c0,0.434-0.049,0.434-0.049,0.867c0,0.435,0.007,0.435,0.007,0.87c0,0.435,0.024,0.435,0.024,0.87
		c0,0.435,0.07,0.435,0.07,0.869s-0.09,0.435-0.09,0.87c0,0.434,0.07,0.434,0.07,0.868c0,0.435-0.03,0.435-0.03,0.869
		s-0.04,0.435-0.04,0.869c0,0.434,0.019,0.434,0.019,0.868c0,0.435,0.015,0.435,0.015,0.868c0,0.435,0.063,0.435,0.063,0.869
		c0,0.434-0.099,0.434-0.099,0.868s0.072,0.434,0.072,0.867c0,0.434,0.005,0.434,0.005,0.868c0,0.434,0.034,0.434,0.034,0.868
		c0,0.434-0.024,0.434-0.024,0.868c0,0.433-0.113,0.433-0.113,0.866c0,0.433,0.022,0.433,0.022,0.866
		c0,0.432,0.012,0.432,0.012,0.866s0.087,0.433,0.087,0.866c0,0.434,0.016,0.434,0.016,0.867c0,0.435-0.022,0.435-0.022,0.869
		c0,0.434-0.078,0.434-0.078,0.868c0,0.434,0.047,0.434,0.047,0.868c0,0.435-0.031,0.435-0.031,0.868
		c0,0.435-0.042,0.435-0.042,0.868c0,0.435,0.009,0.435,0.009,0.868s0.11,0.434,0.11,0.868s-0.049,0.434-0.049,0.868
		s-0.045,0.434-0.045,0.868s0.025,0.434,0.025,0.868c0,0.434-0.027,0.434-0.027,0.868c0,0.435-0.01,0.435-0.01,0.868
		s0.067,0.434,0.067,0.868c0,0.433,0.027,0.433,0.027,0.867c0,0.433,0.006,0.433,0.006,0.867c0,0.336,0.215,0.555,0.551,0.555
		c0.427,0,0.427,0.065,0.854,0.065c0.427,0,0.427-0.019,0.854-0.019c0.426,0,0.426,0.031,0.852,0.031
		c0.425,0,0.425-0.016,0.85-0.016c0.426,0,0.426,0.025,0.852,0.025c0.425,0,0.425-0.072,0.851-0.072
		c0.425,0,0.425,0.007,0.849,0.007c0.425,0,0.425,0.004,0.851,0.004c0.336,0,0.573-0.245,0.573-0.581
		c0-0.226,0.092-0.226,0.092-0.452c0-0.262,0.074-0.508,0.277-0.599c0.201-0.09,0.464-0.016,0.664,0.151
		c0.211,0.177,0.436,0.338,0.665,0.497c0.225,0.156,0.47,0.284,0.714,0.421c0.238,0.134,0.494,0.234,0.75,0.349
		c0.248,0.112,0.501,0.214,0.766,0.309c0.257,0.091,0.489,0.282,0.761,0.354c0.262,0.07,0.559,0.02,0.836,0.072
		c0.267,0.05,0.536,0.101,0.817,0.134c0.269,0.032,0.538,0.147,0.82,0.163c0.271,0.016,0.552-0.093,0.835-0.093
		c0.296,0,0.588,0.014,0.879-0.008c0.295-0.022,0.583-0.066,0.872-0.11c0.292-0.043,0.593-0.03,0.878-0.095
		c0.288-0.065,0.581-0.117,0.861-0.204c0.282-0.086,0.546-0.226,0.82-0.333c0.274-0.107,0.573-0.163,0.839-0.29
		c0.265-0.127,0.528-0.268,0.784-0.414c0.255-0.145,0.497-0.321,0.742-0.485c0.244-0.163,0.43-0.408,0.663-0.589
		c0.232-0.179,0.494-0.322,0.715-0.517c0.219-0.195,0.382-0.449,0.589-0.659c0.206-0.209,0.486-0.35,0.679-0.574
		c0.191-0.222,0.315-0.5,0.493-0.736c0.177-0.234,0.418-0.425,0.581-0.671c0.161-0.244,0.275-0.522,0.423-0.778
		c0.146-0.253,0.24-0.536,0.371-0.8c0.13-0.263,0.328-0.495,0.443-0.768c0.114-0.27,0.115-0.583,0.214-0.862
		c0.097-0.276,0.186-0.552,0.268-0.837c0.081-0.282,0.189-0.554,0.255-0.844c0.065-0.285,0.139-0.568,0.188-0.861
		c0.048-0.288,0.059-0.582,0.091-0.877c0.032-0.29,0.057-0.581,0.073-0.877c0.016-0.292,0.074-0.583,0.074-0.88
		C78.404,66.147,78.358,65.854,78.342,65.563z M70.347,66.444c0,0.293-0.015,0.574-0.043,0.85c-0.029,0.291,0.011,0.587-0.047,0.858
		c-0.061,0.285-0.195,0.546-0.287,0.808c-0.096,0.275-0.165,0.557-0.292,0.805c-0.131,0.258-0.266,0.517-0.428,0.747
		c-0.166,0.234-0.44,0.377-0.636,0.581c-0.198,0.205-0.349,0.461-0.575,0.634c-0.225,0.172-0.46,0.345-0.711,0.483
		c-0.247,0.136-0.545,0.172-0.814,0.275c-0.262,0.099-0.51,0.263-0.792,0.329c-0.272,0.064-0.556,0.127-0.845,0.159
		c-0.278,0.031-0.568,0.055-0.859,0.055c-0.291,0-0.579-0.05-0.856-0.081c-0.289-0.031-0.55-0.176-0.823-0.24
		c-0.282-0.066-0.559-0.111-0.821-0.21c-0.27-0.102-0.563-0.149-0.81-0.285c-0.251-0.138-0.476-0.323-0.701-0.495
		c-0.227-0.173-0.404-0.399-0.602-0.604c-0.196-0.204-0.465-0.355-0.631-0.59c-0.163-0.229-0.302-0.488-0.433-0.746
		c-0.127-0.249-0.161-0.547-0.257-0.822c-0.092-0.263-0.18-0.532-0.241-0.816c-0.058-0.272-0.152-0.547-0.182-0.838
		c-0.028-0.276-0.064-0.565-0.064-0.858c0-0.292,0.017-0.582,0.045-0.859c0.029-0.29,0.136-0.565,0.194-0.837
		c0.061-0.285,0.124-0.563,0.216-0.826c0.096-0.274,0.203-0.539,0.33-0.788c0.131-0.258,0.268-0.511,0.431-0.74
		c0.166-0.234,0.395-0.413,0.592-0.616c0.198-0.206,0.38-0.426,0.606-0.599c0.225-0.171,0.497-0.268,0.749-0.406
		c0.247-0.136,0.487-0.281,0.756-0.383c0.262-0.1,0.532-0.176,0.814-0.243c0.272-0.064,0.546-0.137,0.835-0.168
		c0.278-0.031,0.561-0.002,0.853-0.002c0.291,0,0.583-0.106,0.86-0.076c0.289,0.033,0.553,0.187,0.825,0.251
		c0.282,0.067,0.575,0.079,0.838,0.178c0.27,0.102,0.489,0.303,0.735,0.439c0.251,0.139,0.513,0.249,0.739,0.421
		c0.227,0.173,0.411,0.388,0.609,0.594c0.196,0.203,0.413,0.39,0.579,0.624c0.163,0.229,0.244,0.507,0.375,0.764
		c0.127,0.249,0.348,0.463,0.444,0.737c0.092,0.263,0.057,0.567,0.119,0.852c0.059,0.272,0.219,0.534,0.248,0.825
		C70.416,65.862,70.347,66.151,70.347,66.444z M124.636,66.444c0-0.294-0.022-0.586-0.038-0.875
		c-0.015-0.294-0.043-0.585-0.074-0.873c-0.031-0.292-0.104-0.575-0.151-0.861c-0.048-0.29-0.07-0.582-0.133-0.864
		c-0.064-0.287-0.118-0.574-0.198-0.853c-0.081-0.282-0.191-0.552-0.288-0.826c-0.097-0.277-0.18-0.557-0.293-0.824
		c-0.114-0.27-0.211-0.548-0.341-0.808c-0.13-0.263-0.28-0.515-0.426-0.766c-0.147-0.253-0.304-0.5-0.466-0.742
		c-0.163-0.243-0.342-0.474-0.519-0.705c-0.178-0.232-0.337-0.481-0.529-0.699c-0.193-0.22-0.398-0.431-0.605-0.636
		c-0.207-0.206-0.46-0.364-0.68-0.555c-0.22-0.191-0.396-0.44-0.629-0.616c-0.233-0.176-0.469-0.354-0.714-0.515
		c-0.244-0.159-0.507-0.296-0.762-0.439c-0.254-0.143-0.515-0.28-0.78-0.406c-0.262-0.125-0.56-0.176-0.832-0.283
		c-0.27-0.108-0.55-0.185-0.83-0.275c-0.276-0.089-0.544-0.209-0.83-0.28c-0.281-0.071-0.573-0.097-0.863-0.15
		c-0.285-0.053-0.572-0.09-0.865-0.125c-0.287-0.035-0.572-0.12-0.866-0.138c-0.289-0.017-0.582-0.013-0.877-0.013
		c-0.291,0-0.581-0.032-0.866-0.018c-0.291,0.015-0.572,0.113-0.856,0.142c-0.289,0.03-0.577,0.033-0.859,0.078
		c-0.287,0.045-0.584,0.035-0.863,0.096c-0.284,0.061-0.556,0.166-0.831,0.243c-0.279,0.077-0.533,0.227-0.803,0.321
		c-0.274,0.094-0.573,0.117-0.837,0.226c-0.267,0.111-0.539,0.218-0.796,0.343c-0.26,0.127-0.523,0.255-0.771,0.397
		c-0.251,0.143-0.461,0.355-0.7,0.512c-0.241,0.159-0.506,0.286-0.734,0.459c-0.23,0.175-0.451,0.363-0.668,0.551
		c-0.218,0.188-0.414,0.403-0.618,0.605c-0.205,0.203-0.351,0.459-0.541,0.674c-0.19,0.216-0.443,0.38-0.619,0.607
		c-0.176,0.228-0.288,0.502-0.449,0.741c-0.161,0.239-0.339,0.465-0.485,0.714c-0.145,0.248-0.318,0.483-0.448,0.74
		c-0.129,0.257-0.233,0.527-0.347,0.793c-0.112,0.263-0.203,0.538-0.3,0.81c-0.096,0.27-0.123,0.562-0.203,0.84
		c-0.079,0.275-0.246,0.529-0.31,0.812c-0.063,0.279-0.047,0.576-0.094,0.862c-0.047,0.282-0.081,0.566-0.112,0.855
		c-0.031,0.284-0.02,0.571-0.035,0.861c-0.015,0.285-0.047,0.569-0.047,0.859c0,0.297-0.105,0.596-0.089,0.888
		c0.016,0.297,0.062,0.592,0.094,0.883c0.032,0.295,0.085,0.587,0.133,0.875c0.049,0.292,0.191,0.564,0.257,0.849
		c0.066,0.289,0.155,0.566,0.238,0.847c0.084,0.284,0.155,0.566,0.255,0.842c0.101,0.278,0.139,0.58,0.257,0.849
		c0.119,0.27,0.289,0.516,0.424,0.776c0.137,0.262,0.254,0.534,0.407,0.785c0.153,0.252,0.281,0.523,0.451,0.764
		c0.17,0.241,0.357,0.473,0.543,0.701c0.186,0.228,0.462,0.378,0.663,0.593c0.201,0.214,0.373,0.456,0.589,0.657
		c0.215,0.2,0.408,0.428,0.637,0.615c0.228,0.185,0.479,0.343,0.721,0.514c0.239,0.169,0.472,0.355,0.725,0.509
		c0.25,0.153,0.503,0.308,0.766,0.446c0.259,0.136,0.554,0.205,0.825,0.326c0.267,0.12,0.547,0.206,0.826,0.311
		c0.273,0.103,0.551,0.193,0.835,0.281c0.279,0.087,0.559,0.17,0.848,0.243c0.283,0.071,0.556,0.198,0.849,0.255
		c0.286,0.055,0.581,0.086,0.876,0.127c0.289,0.04,0.579,0.105,0.876,0.133c0.29,0.026,0.586,0.031,0.884,0.045
		c0.291,0.013,0.586,0.045,0.885,0.045c0.286,0,0.567-0.078,0.846-0.09c0.286-0.012,0.567-0.023,0.845-0.048
		c0.284-0.025,0.564-0.052,0.84-0.091c0.283-0.039,0.559-0.092,0.833-0.144c0.28-0.054,0.576-0.025,0.847-0.092
		c0.276-0.069,0.519-0.25,0.785-0.333c0.272-0.085,0.559-0.115,0.82-0.214c0.266-0.101,0.523-0.218,0.779-0.335
		c0.258-0.117,0.501-0.263,0.749-0.396c0.249-0.134,0.478-0.299,0.716-0.449c0.239-0.15,0.471-0.306,0.699-0.473
		c0.228-0.166,0.522-0.251,0.738-0.432c0.216-0.181,0.35-0.456,0.555-0.653c0.203-0.195,0.405-0.388,0.597-0.598
		c0.189-0.207,0.443-0.363,0.621-0.585c0.237-0.296,0.09-0.718-0.238-0.907c-0.388-0.223-0.376-0.244-0.764-0.467
		c-0.388-0.223-0.394-0.212-0.782-0.435c-0.387-0.222-0.353-0.282-0.741-0.505c-0.387-0.222-0.374-0.243-0.761-0.466
		c-0.387-0.222-0.41-0.183-0.797-0.405c-0.387-0.222-0.353-0.28-0.74-0.502c-0.386-0.222-0.388-0.218-0.774-0.44
		c-0.227-0.13-0.574-0.077-0.766,0.099c-0.207,0.19-0.382,0.443-0.632,0.609c-0.236,0.156-0.521,0.253-0.79,0.383
		c-0.256,0.125-0.502,0.304-0.785,0.4c-0.27,0.092-0.582,0.065-0.873,0.129c-0.279,0.061-0.554,0.185-0.85,0.217
		c-0.285,0.03-0.58-0.041-0.877-0.041c-0.295,0-0.585,0.039-0.87,0.018c-0.295-0.021-0.591-0.004-0.873-0.048
		c-0.292-0.047-0.559-0.188-0.834-0.262c-0.285-0.076-0.598-0.064-0.862-0.173c-0.271-0.113-0.541-0.246-0.787-0.395
		c-0.249-0.15-0.47-0.355-0.69-0.545c-0.217-0.188-0.409-0.412-0.595-0.641c-0.178-0.22-0.369-0.447-0.517-0.707
		c-0.231-0.408,0.1-0.984,0.57-0.984c0.44,0,0.44,0.05,0.88,0.05s0.44,0.031,0.88,0.031c0.439,0,0.439-0.086,0.878-0.086
		c0.438,0,0.438,0.057,0.877,0.057c0.439,0,0.439-0.047,0.878-0.047c0.438,0,0.438-0.019,0.877-0.019
		c0.438,0,0.438,0.119,0.876,0.119c0.439,0,0.439-0.091,0.877-0.091c0.437,0,0.437-0.016,0.874-0.016
		c0.438,0,0.438,0.092,0.876,0.092c0.439,0,0.439-0.084,0.877-0.084c0.438,0,0.438-0.015,0.876-0.015
		c0.438,0,0.438-0.008,0.876-0.008c0.438,0,0.438,0.034,0.875,0.034c0.438,0,0.438,0.099,0.877,0.099
		c0.438,0,0.438-0.038,0.875-0.038c0.438,0,0.438-0.081,0.875-0.081c0.438,0,0.438,0.033,0.876,0.033s0.438,0.052,0.876,0.052
		c0.437,0,0.437-0.11,0.874-0.11c0.293,0,0.483-0.146,0.534-0.435c0.052-0.294,0.172-0.581,0.206-0.885
		c0.034-0.297-0.008-0.602,0.009-0.907C124.569,67.051,124.636,66.751,124.636,66.444z M115.809,63.632
		c-0.447,0-0.445,0.081-0.892,0.093c-0.447,0.011-0.448-0.086-0.895-0.086c-0.446,0-0.446,0.012-0.892,0.012
		c-0.445,0-0.445,0.05-0.89,0.05c-0.446,0-0.446,0.022-0.891,0.022c-0.445,0-0.445-0.003-0.891-0.003
		c-0.445,0-0.445-0.063-0.889-0.063c-0.445,0-0.445,0.015-0.891,0.015c-0.444,0-0.444,0.005-0.888,0.005
		c-0.445,0-0.445,0.014-0.89,0.014c-0.445,0-0.445-0.063-0.891-0.063c-0.427,0-0.738-0.396-0.574-0.79
		c0.114-0.275,0.302-0.5,0.446-0.743c0.151-0.253,0.288-0.502,0.471-0.72c0.188-0.223,0.391-0.42,0.612-0.606
		c0.221-0.185,0.44-0.371,0.692-0.517c0.246-0.143,0.522-0.226,0.798-0.331c0.264-0.101,0.507-0.301,0.798-0.367
		c0.274-0.062,0.579-0.004,0.877-0.034c0.28-0.028,0.566-0.117,0.865-0.117c0.283,0,0.559,0.106,0.84,0.139
		c0.281,0.033,0.565,0.033,0.839,0.1c0.275,0.069,0.529,0.191,0.791,0.298c0.261,0.106,0.532,0.189,0.776,0.336
		c0.239,0.146,0.42,0.368,0.637,0.556c0.21,0.181,0.491,0.299,0.676,0.522c0.175,0.212,0.242,0.508,0.391,0.759
		c0.139,0.235,0.369,0.435,0.482,0.706C116.587,63.215,116.236,63.632,115.809,63.632z"/>
</g>
</svg>
