<svg xmlns="http://www.w3.org/2000/svg" viewBox="0 0 200 99.4"><path fill="#731D2C" d="M6.5 86.9v9H4.4v-9h2zm7.6 5v4h-1.9v-3.6c0-.8-.5-1.2-1.1-1.2-.7 0-1.2.4-1.2 1.3V96h-2v-6.4h2v.6c.3-.5 1-.8 1.8-.8 1.3 0 2.4 1 2.4 2.7zm3.8-.6v2.3c0 .6.5.6 1.4.6v1.7c-2.6.3-3.3-.5-3.3-2.3v-2.3h-1v-1.8h1v-1.3l2-.5v1.8h1.3v1.8h-1.4zm5.9 3c.5 0 1-.1 1.2-.4l1.6.9c-.7.9-1.6 1.3-2.9 1.3-2.2 0-3.5-1.5-3.5-3.4s1.4-3.4 3.4-3.4c1.9 0 3.3 1.5 3.3 3.4v.8h-4.7c.3.7.9.9 1.6.9zM25 92c-.2-.7-.8-1-1.4-1-.7 0-1.2.4-1.4 1H25zm6.9-2.7v2.2c-.8 0-2 .2-2 1.5v3h-2v-6.5h2v1.1c.3-.8 1.2-1.3 2-1.3zm7.5.2v6.4h-2v-.6c-.4.5-1 .8-1.9.8-1.7 0-3-1.5-3-3.4s1.3-3.4 3-3.4c.9 0 1.5.3 2 .8v-.6h1.9zm-2 3.2c0-1-.6-1.6-1.5-1.6s-1.5.6-1.5 1.6.6 1.6 1.5 1.6c1 0 1.6-.6 1.6-1.6zm3.1 0c0-2 1.5-3.4 3.4-3.4 1.3 0 2.4.7 3 1.6l-1.7 1c-.3-.4-.7-.7-1.3-.7-.8 0-1.5.6-1.5 1.5s.7 1.5 1.5 1.5c.6 0 1-.3 1.3-.7l1.6 1c-.5 1-1.6 1.6-2.9 1.6-2 0-3.4-1.5-3.4-3.4zm9.6-1.4v2.3c0 .6.5.6 1.4.6v1.7c-2.6.3-3.3-.5-3.3-2.3v-2.3h-1v-1.8h1v-1.3l2-.5v1.8h1.3v1.8H50zm2.4-3.6c0-.6.5-1.1 1.2-1.1.6 0 1.1.5 1.1 1.1 0 .7-.5 1.2-1.1 1.2-.7 0-1.2-.5-1.2-1.2zm.2 1.8h2v6.4h-2v-6.4zm9.6 0L60 95.9h-2.2l-2.3-6.4h2.1l1.3 4 1.4-4h2.1zm4 4.9c.6 0 1-.2 1.3-.5l1.5.9c-.6.9-1.6 1.3-2.8 1.3-2.2 0-3.6-1.5-3.6-3.4s1.4-3.4 3.5-3.4c1.9 0 3.2 1.5 3.2 3.4v.8h-4.6c.2.7.8.9 1.5.9zm1.2-2.4c-.2-.7-.8-1-1.3-1-.8 0-1.3.4-1.5 1h2.8zm12 2v2h-5.7v-9.1h5.7v2h-3.6v1.5h3.2v2H76v1.5h3.6zm5 2l-1.2-1.8-1.2 1.7H80l2.3-3.2-2.2-3.2h2.2l1.1 1.6 1.2-1.6h2.2l-2.2 3.2 2.3 3.2h-2.3zm10-3.3c0 2-1.5 3.4-3.2 3.4-.8 0-1.5-.3-1.9-.8v3.2h-2v-9h2v.6c.4-.5 1-.8 2-.8 1.6 0 3 1.5 3 3.4zm-2 0c0-1-.6-1.6-1.5-1.6s-1.6.6-1.6 1.6.7 1.6 1.6 1.6 1.5-.6 1.5-1.6zm6.3 1.7c.5 0 1-.2 1.3-.5l1.5.9c-.6.9-1.6 1.3-2.8 1.3-2.2 0-3.6-1.5-3.6-3.4s1.4-3.4 3.5-3.4c1.8 0 3.2 1.5 3.2 3.4v.8h-4.6c.2.7.8.9 1.5.9zM100 92c-.2-.7-.8-1-1.4-1-.7 0-1.2.4-1.4 1h2.8zm7-2.7v2.2c-.9 0-2 .2-2 1.5v3h-2v-6.5h2v1.1c.2-.8 1-1.3 2-1.3zm.6-1.6c0-.6.6-1.1 1.2-1.1s1.1.5 1.1 1.1c0 .7-.5 1.2-1.1 1.2-.6 0-1.2-.5-1.2-1.2zm.2 1.8h2v6.4h-2v-6.4zm6.7 4.9c.5 0 1-.2 1.2-.5l1.6.9c-.7.9-1.6 1.3-2.9 1.3-2.2 0-3.5-1.5-3.5-3.4s1.3-3.4 3.4-3.4c1.9 0 3.3 1.5 3.3 3.4l-.1.8h-4.6c.3.7.8.9 1.6.9zm1.1-2.4c-.2-.7-.7-1-1.3-1-.8 0-1.3.4-1.4 1h2.7zm9.3 0v4h-2v-3.7c0-.8-.5-1.2-1-1.2-.8 0-1.3.4-1.3 1.3V96h-2v-6.4h2v.6c.4-.5 1-.8 1.9-.8 1.3 0 2.4 1 2.4 2.7zm1 .7c0-2 1.4-3.4 3.4-3.4 1.3 0 2.4.7 3 1.6l-1.8 1c-.2-.4-.6-.7-1.2-.7-.9 0-1.5.6-1.5 1.5s.6 1.5 1.5 1.5c.6 0 1-.3 1.2-.7l1.7 1c-.5 1-1.6 1.6-2.9 1.6-2 0-3.4-1.5-3.4-3.4zm10.5 1.7c.5 0 1-.2 1.2-.5l1.5.9c-.6.9-1.5 1.3-2.8 1.3-2.2 0-3.5-1.5-3.5-3.4s1.3-3.4 3.4-3.4c1.9 0 3.3 1.5 3.3 3.4l-.1.8h-4.6c.3.7.8.9 1.6.9zm1.1-2.4c-.2-.7-.7-1-1.3-1-.8 0-1.3.4-1.4 1h2.7zm14.4-.6c0 2.6-2 4.5-4.4 4.5h-3.6v-9h3.6c2.5 0 4.4 2 4.4 4.5zm-2 0c0-1.5-1-2.5-2.4-2.5h-1.6v5h1.6c1.4 0 2.4-1 2.4-2.5zm6.4 3c.5 0 1-.2 1.2-.5l1.6.9c-.7.9-1.6 1.3-2.9 1.3-2.2 0-3.5-1.5-3.5-3.4s1.4-3.4 3.4-3.4c1.9 0 3.3 1.5 3.3 3.4l-.1.8h-4.6c.3.7.9.9 1.6.9zm1.2-2.4c-.3-.7-.8-1-1.4-1-.8 0-1.2.4-1.4 1h2.8zm8 2c0 1.5-1.3 2.1-2.7 2.1-1.3 0-2.3-.5-2.8-1.5l1.7-1c.2.5.5.8 1.1.8.5 0 .7-.2.7-.4 0-.7-3.2-.4-3.2-2.6 0-1.4 1.2-2.1 2.6-2.1 1 0 2 .5 2.5 1.4l-1.7.9c-.2-.4-.4-.6-.8-.6s-.6.1-.6.4c0 .7 3.2.2 3.2 2.6zm.8-6.3c0-.6.6-1.1 1.2-1.1s1.2.5 1.2 1.1c0 .7-.6 1.2-1.2 1.2s-1.2-.5-1.2-1.2zm.2 1.8h2v6.4h-2v-6.4zm10 0v6.1c0 2.2-1.7 3.1-3.4 3.1-1.3 0-2.5-.5-3-1.6l1.6-1c.2.5.6.9 1.5.9s1.4-.5 1.4-1.4V95c-.4.5-1 .9-1.9.9-1.8 0-3.1-1.5-3.1-3.3s1.3-3.3 3.1-3.3c.9 0 1.5.3 2 .8v-.6h1.8zm-1.9 3c0-.8-.6-1.4-1.5-1.4-1 0-1.6.6-1.6 1.5s.7 1.5 1.6 1.5c.9 0 1.5-.6 1.5-1.5zm9.5-.5v4h-1.9v-3.7c0-.8-.5-1.2-1.1-1.2-.7 0-1.2.4-1.2 1.3V96h-2v-6.4h2v.6c.3-.5 1-.8 1.8-.8 1.3 0 2.4 1 2.4 2.7zm4.7 2.4c.5 0 1-.2 1.2-.5l1.6.9c-.7.9-1.6 1.3-2.9 1.3-2.2 0-3.5-1.5-3.5-3.4s1.4-3.4 3.4-3.4c1.9 0 3.3 1.5 3.3 3.4l-.1.8h-4.6c.3.7.9.9 1.6.9zM190 92c-.3-.7-.8-1-1.4-1-.8 0-1.2.4-1.4 1h2.8zm6.9-2.7v2.2c-.8 0-2 .2-2 1.5v3h-2v-6.5h2v1.1a2 2 0 0 1 2-1.3zM26.8 24.1c0 3.5 1 6.7 2.6 9.3l.1.3V37c0 .4-.3.6-.6.6h-5.5a.6.6 0 0 1-.5-.2L8.6 17.2v19.7c0 .4-.2.6-.6.6H.7A.6.6 0 0 1 0 37V.7C0 .3.3 0 .7 0h5.5c.2 0 .4 0 .5.2l14.2 20.1V.7c0-.4.3-.6.6-.6H29c.3 0 .6.2.6.6v14.2a17.3 17.3 0 0 0-2.7 9.2zm22.8-12.7v.4c0 .6-.6.8-1 .5-1.7-1.4-4-2.3-7-2.3a13 13 0 0 0-12.1 9.8 15.5 15.5 0 0 0 0 8.7 13 13 0 0 0 12.2 9.8c3 0 5.2-.9 7-2.3.3-.3 1 0 1 .5v.4c0 .4.2.6.6.6H57c.3 0 .6-.2.6-.6V11.4c0-.4-.3-.6-.6-.6h-6.8c-.4 0-.7.2-.7.6zm-6.3 19.3c-3.7 0-6.4-2.5-6.4-6.5s2.7-6.6 6.4-6.6 6.3 2.5 6.3 6.6-2.6 6.5-6.3 6.5zM151.7 42v7.3h-74c-11 0-13.5-2-13.5-9.6V19.1c0-.3-.3-.6-.6-.6h-3a.6.6 0 0 1-.7-.6v-6.5c0-.4.3-.6.6-.6h3c.4 0 .7-.3.7-.6v-4c0-.3.2-.6.4-.6l6.8-2c.4-.2.8 0 .8.5v6c0 .4.3.7.6.7h4.3c.4 0 .6.2.6.6v6.5c0 .3-.2.6-.6.6h-4.3c-.3 0-.6.3-.6.6v20.6c0 2.3 2 2.3 5.5 2.3h74zm-48.5-17.8c0-2.8.6-5.4 1.7-7.7V16a9.5 9.5 0 0 0-9-6 10 10 0 0 0-6.6 2.2c-.4.3-1 0-1-.5V.7c0-.4-.3-.6-.7-.6h-6.8c-.3 0-.6.2-.6.6v36.2c0 .4.3.6.6.6h6.8c.4 0 .7-.2.7-.6V23c0-3.8 2-5.5 5-5.5 2.5 0 4.6 1.6 4.6 4.9V37c0 .4.3.6.6.6h6.8c.3 0 .6-.2.6-.6v-3.5a17.2 17.2 0 0 1-2.7-9.2zM126 11.4v.4c0 .6-.7.8-1 .5-1.8-1.4-4-2.3-7-2.3-7 0-12.8 6.2-12.8 14.2s5.8 14 12.8 14c3 0 5.2-.8 7-2.2.3-.3 1 0 1 .5v.4c0 .4.2.6.6.6h6.8c.3 0 .6-.2.6-.6V11.4c0-.4-.3-.6-.6-.6h-6.8c-.4 0-.6.2-.6.6zm-6.4 19.3c-3.7 0-6.4-2.5-6.4-6.5s2.7-6.6 6.4-6.6 6.4 2.5 6.4 6.6-2.7 6.5-6.4 6.5zM78.4 66.5c0 8-5.7 14.1-12.8 14.1-2.9 0-5.2-.8-7-2.3-.3-.3-1 0-1 .5v.4c0 .4-.2.7-.5.7h-6.8a.6.6 0 0 1-.7-.7V41c0-.3.3-.6.7-.6H57c.3 0 .6.3.6.6v13.2c0 .5.6.8 1 .4 1.7-1.4 4-2.3 7-2.3 7 0 12.7 6.2 12.7 14.2zm-8 0c0-4-2.7-6.5-6.3-6.5-3.8 0-6.4 2.5-6.4 6.5S60.3 73 64 73c3.6 0 6.3-2.5 6.3-6.5zm25.9-13.3V61c0 .3-.3.6-.7.6-3.2-.3-7.3 1.2-7.3 6.2v11.4c0 .4-.3.7-.7.7h-6.8a.6.6 0 0 1-.6-.7V53.7c0-.3.3-.6.6-.6h6.8c.4 0 .7.3.7.6V58c1-3.4 4.1-5.1 7.3-5.3.4 0 .7.2.7.6zm27.6 16.5h-17.6c-.4 0-.7.5-.5.9 1.2 2 3.4 2.8 6 2.8 2 0 3.7-.7 4.8-1.7.2-.2.5-.2.7 0l5.5 3c.3.2.4.7.1 1-2.6 3.2-6.4 5-11.2 5-9.2 0-14.8-6.2-14.8-14.2s5.7-14.2 14.2-14.2c7.8 0 13.6 6.1 13.6 14.2 0 1 0 1.8-.2 2.7 0 .3-.3.5-.6.5zm-8-6c.4 0 .7-.4.5-.8-1-2.5-3.2-3.4-5.4-3.4-2.7 0-4.6 1.2-5.5 3.4-.2.4.1.8.6.8h9.8zM146 70l6 3.4c.2.2.3.6.2.9a13.7 13.7 0 0 1-11.8 6.3c-8.2 0-14.2-6.1-14.2-14.1s6-14.2 14.2-14.2c5 0 9.4 2.5 11.8 6.3.1.3 0 .7-.3 1L146 63c-.3.1-.6 0-.8-.2a5.6 5.6 0 0 0-5-2.5c-3.4 0-6 2.5-6 6.2s2.6 6.2 6 6.2c2.2 0 4-1 5-2.5.2-.3.5-.4.8-.2zm24.3-17.7c-3.5 0-6.2 1.3-7.7 3.3V21.1c0-7.2-4.6-11-10-11-3.5 0-6.2 1.2-7.6 3.2v-2c0-.3-.3-.5-.6-.5h-6.8c-.4 0-.6.2-.6.6v25.5c0 .4.2.6.6.6h6.8c.3 0 .6-.2.6-.6V23c0-3.8 2-5.5 5-5.5 2.5 0 4.6 1.6 4.6 4.9v57c0 .3.3.6.6.6h6.8c.4 0 .6-.3.6-.7v-14c0-3.8 2-5.5 5-5.5 2.6 0 4.7 1.6 4.7 4.9v14.6c0 .4.2.7.6.7h6.8c.3 0 .6-.3.6-.7V63.4c0-7.2-4.6-11-10-11zm22-3c-.3 0-.6.3-.6.6v20.4c0 2.1 1.7 2.5 4.9 2.3.3 0 .6.3.6.6v6.1c0 .3-.2.6-.5.6-10 1-13-2.3-13-9.6V49.9c0-.3-.3-.6-.6-.6h-17a.6.6 0 0 1-.6-.6v-6c0-.4.3-.7.6-.7h17c.3 0 .6-.2.6-.6V37c0-.3.2-.5.4-.6l6.8-2c.4-.2.8.1.8.5v6.5c0 .4.3.6.6.6h7.2c.3 0 .6.3.6.6v6.1c0 .3-.3.6-.6.6h-7.2zM39 41.4v27.5l3.6 10.5c0 .3.3.5.6.5h3.2c.3 0 .6-.3.6-.7V41.4c0-.3-.3-.6-.6-.6h-6.8c-.4 0-.6.3-.6.6zm.6 38.5h-8a.6.6 0 0 1-.6-.5l-1.6-5c-.1-.3-.4-.4-.6-.4h-13c-.3 0-.5.1-.6.4l-1.6 5c-.1.3-.3.5-.6.5H5a.6.6 0 0 1-.7-.8l12.4-36.3c0-.2.3-.4.5-.4h10.1c.3 0 .5.2.6.4l11 32.6 1.3 3.7c.1.3-.2.8-.6.8zM26.3 65l-3.5-11a.6.6 0 0 0-1.2 0L18 65c0 .4.2.8.6.8h7.1c.4 0 .7-.4.6-.8z"/></svg>