<svg xmlns="http://www.w3.org/2000/svg" viewBox="0 0 2000 1164"><path d="M1873 169l97-169h-499l-174 301-66-201h-117L1082 0H632L0 1095h241l-40 69h285l75-129h290l39 129h535l575-995zM651 888l106-184 55 184zm630 108H961L783 406 443 996H171L689 99h321l182 581 336-581h271z"/><path fill="#cfcfcf" d="M1799 99l-518 897H961L783 406 443 996H171L689 99h321l182 581 336-581h271z"/><path fill="#e6e6e6" d="M1799 99l-518 897-41-71h-226L804 228l-21 178-340 590-41-71H294L771 99h239l182 581 336-581h271z"/><path fill="#fcfcfc" d="M935 99h75l211 673-48 83L935 99z"/><path fill="#eee" d="M730 170l-41-71h321l-52 71H730z"/><path fill="#cfcfcf" d="M1173 855l19-175 336-581h82l-437 756z"/><path fill="#eee" d="M1569 170l-41-71h271l-123 71h-107z"/></svg>