<svg xmlns="http://www.w3.org/2000/svg" viewBox="0 0 5317 1164"><defs><style>.cls-1{fill:#cfcfcf}</style></defs><g id="Layer_2" data-name="Layer 2"><g id="Layer_1-2" data-name="Layer 1"><path d="M2740 623h-124l-130-180c-24-34-71-104-85-128 4 24 5 97 5 141v167h-145V77h133l120 161c25 34 74 106 85 129-4-24-4-97-4-141V77h145zM3314 623h-163l-30-96h-164l-29 96h-163l198-546h153zm-230-216l-10-36c-19-70-28-100-35-136-7 36-16 67-35 136l-10 36zM3710 209h-152v414h-152V209h-153V77h457zM4237 623h-154V408h-170v215h-154V77h154v199h170V77h154zM4812 623h-164l-29-96h-164l-30 96h-162l198-546h153zm-230-216l-10-36c-20-70-28-100-35-136-7 36-16 67-35 136l-10 36zM5317 623h-123l-130-180c-25-34-71-104-85-128 4 24 4 97 4 141v167h-145V77h134l120 161c25 34 73 106 85 129-4-24-5-97-5-141V77h145zM2337 1088h-45l-32-96h-156l-33 96h-44l132-379h46zm-90-135l-42-124-23-75-24 76-41 123zM2735 1088h-230V709h42v340h188zM3164 976c0 75-44 112-124 112h-136V709h139c60 0 103 30 103 95 0 41-23 66-55 77 35 9 73 34 73 95zm-61-171c0-34-20-57-62-57h-94v118h91c47 0 65-28 65-61zm18 173c0-48-31-75-80-75h-94v146h96c57 0 78-28 78-71zM3611 816c0 59-35 96-89 107l83 165h-49l-81-161h-90v161h-42V709h150c66 0 118 34 118 107zm-42 2c0-47-27-70-78-70h-106v141h101c56 0 83-23 83-71zM4027 1088h-237V709h229v39h-187v119h108v38h-108v144h195zM4442 1031c-28 37-69 63-124 63-92 0-153-84-153-195 0-112 63-196 155-196 52 0 91 20 120 61l-33 25c-25-33-47-47-88-47-65 0-112 64-112 156s48 157 112 157c41 0 69-18 94-49zM4883 1088h-42V909h-188v179h-42V709h42v162h188V709h42zM5316 748h-111v340h-43V748h-111v-39h265zM1873 169l97-169h-499l-174 301-66-201h-117L1082 0H632L0 1095h241l-40 69h285l75-129h290l39 129h535l575-995zM651 888l106-184 55 184zm630 108H961L783 406 443 996H171L689 99h321l182 581 336-581h271z"/><path class="cls-1" d="M1799 99l-518 897H961L783 406 443 996H171L689 99h321l182 581 336-581h271z"/><path fill="#e6e6e6" d="M1799 99l-518 897-41-71h-226L804 228l-21 178-340 590-41-71H294L771 99h239l182 581 336-581h271z"/><path class="cls-1" d="M1173 855l19-175 336-581h82l-437 756z"/><path fill="#eee" d="M1569 170l-41-71h271l-123 71h-107z"/></g></g></svg>